<?xml version="1.0" encoding="UTF-8" ?>
<!DOCTYPE svg PUBLIC "-//W3C//DTD SVG 1.1//EN" "http://www.w3.org/Graphics/SVG/1.1/DTD/svg11.dtd">
<svg width="140pt" height="25pt" viewBox="0 0 140 25" version="1.1" xmlns="http://www.w3.org/2000/svg">
<g id="#000000ff">
<path fill="#000000" opacity="1.00" d=" M 9.32 0.00 L 11.79 0.00 C 8.34 5.25 5.04 10.64 2.24 16.27 C 3.40 15.50 4.70 14.80 5.40 13.54 C 8.27 9.07 10.46 4.16 13.81 0.00 L 16.03 0.00 C 12.70 5.39 8.93 10.63 6.70 16.61 C 11.81 12.09 13.75 5.23 17.97 0.00 L 19.90 0.00 C 22.72 4.58 25.63 9.11 28.20 13.83 C 28.92 15.01 29.39 17.14 27.50 17.41 C 20.73 18.12 13.88 17.42 7.08 17.72 C 4.70 17.50 1.65 18.38 0.01 16.12 C 2.43 10.40 5.97 5.21 9.32 0.00 M 18.41 2.16 C 18.33 2.56 18.17 3.34 18.09 3.74 C 19.82 7.29 22.01 10.59 24.00 14.00 C 24.53 15.17 25.67 15.67 26.85 15.94 C 24.08 11.34 21.88 6.26 18.41 2.16 M 16.10 7.32 C 17.69 10.52 19.01 14.75 22.61 16.16 C 20.82 12.53 18.71 9.08 16.62 5.63 C 16.49 6.05 16.23 6.90 16.10 7.32 M 14.50 9.44 C 13.31 11.49 12.12 13.53 10.96 15.58 C 13.35 15.59 15.75 15.59 18.15 15.57 C 16.99 13.50 15.74 11.47 14.50 9.44 Z" />
<path fill="#000000" opacity="1.00" d=" M 44.32 5.08 C 45.64 5.03 46.97 4.98 48.29 4.91 C 50.08 9.64 51.82 14.40 53.46 19.18 C 51.33 19.22 49.20 19.01 48.67 16.52 C 47.04 16.49 45.41 16.47 43.77 16.45 C 43.55 17.09 43.10 18.36 42.87 19.00 C 41.99 19.00 40.23 19.00 39.35 19.00 C 40.99 14.35 42.70 9.73 44.32 5.08 M 44.59 13.98 C 45.46 13.99 47.21 14.00 48.08 14.01 C 47.55 12.27 47.01 10.54 46.46 8.81 C 45.85 10.54 45.24 12.27 44.59 13.98 Z" />
<path fill="#000000" opacity="1.00" d=" M 57.00 4.92 C 58.23 5.01 59.45 5.10 60.67 5.19 C 62.50 8.11 64.37 11.00 66.29 13.85 C 66.28 10.89 66.26 7.94 66.27 4.99 C 67.06 4.99 68.66 5.00 69.46 5.00 C 69.47 9.67 69.47 14.34 69.46 19.00 C 68.63 19.00 66.97 19.00 66.14 18.99 C 64.33 16.16 62.44 13.37 60.49 10.63 C 60.46 13.42 60.46 16.21 60.46 19.00 C 59.60 19.00 57.87 19.00 57.00 19.00 C 57.00 14.31 57.00 9.61 57.00 4.92 Z" />
<path fill="#000000" opacity="1.00" d=" M 75.00 16.70 C 72.04 13.12 73.36 6.58 78.04 5.19 C 81.76 3.76 86.19 5.78 87.30 9.67 C 84.76 9.59 82.47 8.48 80.02 8.00 C 75.87 8.23 75.83 15.71 79.97 15.97 C 82.03 16.70 83.29 14.93 84.39 13.55 C 82.93 13.50 81.47 13.47 80.00 13.44 C 80.00 12.83 80.00 11.61 79.99 11.00 C 82.48 11.00 84.96 11.00 87.44 11.02 C 87.13 12.81 87.44 14.85 86.26 16.38 C 83.66 19.84 77.81 19.97 75.00 16.70 Z" />
<path fill="#000000" opacity="1.00" d=" M 94.40 5.63 C 98.90 2.91 105.47 6.69 105.03 12.02 C 105.34 17.55 98.44 21.06 93.96 18.04 C 89.45 15.41 89.64 7.88 94.40 5.63 M 96.19 8.24 C 92.29 10.00 94.43 17.41 98.96 15.92 C 103.90 14.37 101.23 5.76 96.19 8.24 Z" />
<path fill="#000000" opacity="1.00" d=" M 109.00 4.98 C 112.35 5.29 116.69 3.95 119.20 6.86 C 120.75 9.39 119.34 12.32 117.00 13.74 C 118.00 15.49 118.99 17.25 119.99 19.01 C 118.72 19.00 117.46 19.00 116.19 18.99 C 115.24 17.01 113.96 15.23 112.60 13.51 C 112.52 15.34 112.47 17.17 112.42 19.00 C 111.56 19.00 109.86 19.00 109.00 19.00 C 109.00 14.33 109.00 9.66 109.00 4.98 M 112.48 7.62 C 112.47 8.83 112.47 10.04 112.47 11.25 C 113.61 11.28 114.75 11.31 115.89 11.34 C 115.92 10.22 116.09 9.10 116.52 8.06 C 115.17 7.92 113.83 7.77 112.48 7.62 Z" />
<path fill="#000000" opacity="1.00" d=" M 128.13 5.00 C 129.46 5.00 130.79 5.00 132.12 5.01 C 133.81 9.73 135.61 14.43 137.19 19.19 C 135.16 19.11 132.84 19.06 132.49 16.49 C 130.17 16.59 126.83 15.64 126.45 18.94 C 125.32 18.96 124.19 18.98 123.06 18.99 C 124.78 14.34 126.46 9.67 128.13 5.00 M 128.32 14.01 C 129.51 13.99 130.69 13.96 131.88 13.92 C 131.30 12.24 130.73 10.57 130.16 8.89 C 129.54 10.59 128.93 12.30 128.32 14.01 Z" />
<path fill="#000000" opacity="1.00" d=" M 1.96 19.01 C 10.38 19.26 18.82 19.38 27.23 18.93 C 26.90 19.49 26.25 20.61 25.92 21.17 C 18.30 21.16 10.69 21.22 3.07 21.13 C 2.79 20.60 2.24 19.54 1.96 19.01 Z" />
<path fill="#000000" opacity="1.00" d=" M 3.71 22.83 C 10.87 22.90 18.03 22.96 25.19 22.81 C 24.74 23.35 23.83 24.45 23.38 25.00 L 6.02 25.00 C 5.44 24.46 4.29 23.37 3.71 22.83 Z" />
</g>
</svg>
