<?xml version="1.0" encoding="UTF-8" ?>
<!DOCTYPE svg PUBLIC "-//W3C//DTD SVG 1.1//EN" "http://www.w3.org/Graphics/SVG/1.1/DTD/svg11.dtd">
<svg width="271pt" height="78pt" viewBox="0 0 271 78" version="1.1" xmlns="http://www.w3.org/2000/svg">
<g id="#aa007ffd">
<path fill="#aa007f" opacity="1.00" d=" M 115.41 20.46 C 116.90 20.73 120.69 19.17 120.50 21.82 C 121.45 24.70 117.55 25.68 115.68 24.30 C 115.62 23.34 115.48 21.42 115.41 20.46 Z" />
<path fill="#aa007f" opacity="1.00" d=" M 27.45 21.49 C 33.46 21.21 40.64 19.92 45.42 24.54 C 46.92 26.05 44.71 27.60 43.37 28.11 C 38.35 22.51 27.50 23.54 24.43 30.68 C 21.54 36.52 24.35 45.04 30.96 46.81 C 34.55 48.12 38.43 47.15 41.58 45.22 C 41.69 41.92 41.72 38.61 41.67 35.31 C 43.20 35.22 44.73 35.21 46.27 35.25 C 46.11 40.51 46.49 45.79 45.93 51.03 C 44.26 50.85 42.31 51.05 41.13 49.58 C 34.41 52.28 25.28 50.86 21.32 44.30 C 19.12 41.30 19.25 37.45 19.31 33.92 C 18.87 28.60 22.87 23.70 27.45 21.49 Z" />
<path fill="#aa007f" opacity="1.00" d=" M 87.96 27.12 C 93.35 19.35 105.73 19.03 112.30 25.51 C 111.41 26.46 110.44 27.31 109.39 28.07 C 104.43 22.81 94.15 23.48 90.85 30.22 C 88.07 35.05 89.35 41.82 93.85 45.17 C 96.83 47.77 101.15 47.82 104.79 46.88 C 107.30 45.76 109.89 42.70 112.25 46.02 C 108.34 50.65 101.82 51.72 96.14 50.57 C 91.32 49.18 87.26 45.29 85.73 40.50 C 84.69 36.00 85.08 30.90 87.96 27.12 Z" />
<path fill="#aa007f" opacity="1.00" d=" M 61.51 27.70 C 66.12 27.86 70.41 31.03 72.27 35.20 C 73.34 39.42 73.08 44.58 69.64 47.69 C 63.99 53.44 52.45 51.07 50.22 43.09 C 47.43 35.76 54.01 27.80 61.51 27.70 M 59.16 32.11 C 52.07 34.13 52.79 46.10 59.98 47.30 C 64.45 48.40 68.89 44.52 68.61 39.99 C 69.42 34.94 63.96 30.41 59.16 32.11 Z" />
<path fill="#aa007f" opacity="1.00" d=" M 115.86 28.16 C 117.35 28.21 118.85 28.32 120.34 28.51 C 120.02 35.74 120.55 42.99 120.09 50.21 C 119.11 51.52 117.08 50.50 115.68 50.62 C 115.81 43.13 115.69 35.64 115.86 28.16 Z" />
<path fill="#aa007f" opacity="1.00" d=" M 126.26 28.13 C 127.93 28.41 130.60 27.60 130.71 30.06 C 135.36 26.75 143.44 27.23 146.08 32.87 C 148.43 38.49 146.91 44.75 147.22 50.65 C 145.73 50.70 144.24 50.78 142.76 50.83 C 142.58 45.51 143.29 40.13 142.36 34.87 C 140.21 30.11 132.13 31.14 130.79 36.07 C 129.88 40.89 130.55 45.84 130.36 50.72 C 129.02 50.86 127.68 50.92 126.34 50.90 C 126.13 43.31 126.31 35.72 126.26 28.13 Z" />
<path fill="#aa007f" opacity="1.00" d=" M 151.18 42.94 C 148.62 36.02 154.59 27.66 162.01 28.07 C 168.21 27.69 173.58 33.39 173.00 39.57 C 167.65 40.32 162.42 41.75 157.07 42.57 C 157.29 43.91 157.02 45.63 158.52 46.32 C 162.26 48.67 166.90 46.91 169.92 44.19 C 170.42 44.95 171.44 46.45 171.95 47.21 C 166.12 53.67 153.77 51.40 151.18 42.94 M 155.03 38.91 C 159.75 38.65 164.52 38.07 168.99 36.42 C 167.13 33.87 164.55 30.98 161.00 31.73 C 157.31 31.92 155.65 35.78 155.03 38.91 Z" />
<path fill="#aa007f" opacity="1.00" d=" M 177.31 28.19 C 179.01 28.48 181.87 27.54 181.57 30.35 C 185.70 26.62 191.96 27.78 196.05 30.93 C 201.11 26.69 210.64 26.71 213.19 33.74 C 214.31 39.36 213.44 45.17 213.55 50.86 C 212.20 50.89 210.85 50.88 209.50 50.83 C 209.35 45.59 209.92 40.29 209.06 35.11 C 207.35 30.01 198.96 31.18 197.90 36.20 C 197.09 41.02 197.63 45.96 197.49 50.83 C 196.13 50.88 194.77 50.89 193.42 50.86 C 193.25 45.66 193.82 40.40 193.00 35.25 C 191.32 30.14 183.06 31.04 181.85 36.05 C 181.03 40.89 181.60 45.85 181.37 50.75 C 180.04 50.86 178.71 50.90 177.37 50.88 C 177.15 43.32 177.08 35.75 177.31 28.19 Z" />
<path fill="#aa007f" opacity="1.00" d=" M 221.52 30.48 C 225.57 26.96 231.44 27.55 235.89 29.94 C 236.32 27.63 238.67 28.45 240.35 28.37 C 240.41 35.86 240.51 43.36 240.30 50.86 C 239.34 50.87 237.43 50.90 236.48 50.92 C 236.45 50.30 236.39 49.08 236.36 48.47 C 230.64 53.04 220.90 50.95 217.97 44.11 C 216.33 39.41 217.29 33.52 221.52 30.48 M 225.44 32.69 C 219.28 35.73 220.97 46.73 227.91 47.36 C 233.63 48.55 237.92 41.66 235.81 36.70 C 234.43 32.64 229.21 30.47 225.44 32.69 Z" />
</g>
</svg>
