<?xml version="1.0" encoding="utf-8"?>
<!-- Generator: Adobe Illustrator 19.2.0, SVG Export Plug-In . SVG Version: 6.00 Build 0)  -->
<svg version="1.1" id="Layer_1" xmlns="http://www.w3.org/2000/svg" xmlns:xlink="http://www.w3.org/1999/xlink" x="0px" y="0px"
	 viewBox="0 0 650 426" style="enable-background:new 0 0 650 426;" xml:space="preserve">
<g>
	<path d="M220.1,187c-2.2-2.7-5.3-4.9-9.1-6.6c-0.4-7.3-2.6-13.5-6.6-17.7c-6.1-6.5-15-8.7-21.4-9.3l-0.2,0l-0.2,0
		c-1.3,0.3-2.4,0.8-3.5,1.3c-1,0.5-1.9,0.9-2.9,1.1c-0.8-0.3-1.6-0.7-2.5-1.1c-1-0.5-2-1-3.2-1.3l-0.3-0.1l-0.3,0
		c-7,0.5-16.6,2.7-22.5,10.2c-3.6,4.2-5.7,10-5.8,16.3l0,0.2l0,0.2c0,0.1,0,0.1,0,0.1c-0.1,0.2-0.8,0.5-1.1,0.6
		c-0.4,0.2-0.9,0.4-1.3,0.6c-6.9,3.6-12,10.9-13.2,19.2c-1,6.7-1.1,16.4,4,24.5c2.3,3.9,6.2,7.2,11.4,9.8c0.1,6.4,1.1,14.2,6.2,19.9
		c3,3.6,7.2,6.4,12.5,8.3l0.3,0.1c0.9,0.1,1.9,0.4,3,0.7c3.2,0.9,6.8,1.9,9.9-0.5c0.2-0.1,0.5-0.3,0.7-0.4c0.9-0.5,1.8-1,2.6-1.1
		c0.7,0.2,1.4,0.7,2.1,1.2c1.2,0.8,2.7,1.8,4.5,1.8c0.3,0,0.5,0,0.8-0.1c5.5-0.6,15.6-2.7,21.6-10.8c3.6-4.8,5.4-11.3,5.3-19.2
		c1.8-1,3.2-1.8,4.6-2.7c6.7-4.4,10.9-12.4,11.4-21.4C227.4,203.9,226.6,193.9,220.1,187z M199.4,220.5c0.8-2.2-0.3-4.4-2.1-5.6
		c-2.1-1.4-5.1-1.5-6.8,1c-1.3,1.7-1.4,3.9-0.1,5.7c1.2,1.7,3.4,2.7,5.5,2.4c2.4,2.6,4.9,5.1,7.3,7.5c1,1,2,2,2.9,3
		c0.1,8.6-1.8,14.7-5.9,18.5c-2.4,2.5-5.7,4.3-10.1,5.7c0-1.5,0-3,0-4.4l0-0.5c2.1-1.3,2.8-3.9,2.3-5.9c-0.6-2.2-2.5-4.1-5.6-3.6
		c-2.2,0.4-3.7,2-4,4.2c-0.3,2.1,0.7,4.2,2.4,5.4c0,0.9,0,1.8,0,2.7c0,1.2,0,2.4,0,3.6c-1.4,0.1-2.7-0.6-4.5-1.6
		c-0.6-0.4-1.2-0.7-1.8-1c0-2.8,0-5.5,0-8.3c0-4.4,0-8.9,0.1-13.4c2.3,0.1,4.7,0.1,7,0.2c1.4,0,2.8,0,4.3,0.1
		c0.2,0.1,0.5,0.4,0.7,0.7c0.6,0.7,1.5,1.8,3.1,1.8c0,0,0,0,0,0c2,0.4,4.1-0.7,5.1-2.8c1.1-2.2,0.6-4.5-1.1-5.9
		c-1.2-1.1-2.7-1.5-4.3-1.2c-1.4,0.3-2.7,1.2-3.5,2.4c-2.6,0-5.2,0-7.8,0c-1.2,0-2.3,0-3.5,0c0-2.6,0-5.2,0-7.8c0-4.4,0-9,0.1-13.5
		l1.5,0c1,1.6,2.9,2.6,5,2.4c2.4-0.2,4.2-1.9,4.5-4.1c0.5-2.6-1-4.9-3.6-5.5c-2-0.5-4.6,0.1-5.8,2.2c-1,0-1.9,0-2.9,0
		c-2.2-2-4.3-4.1-6-5.8l-0.9-0.9l-1,0.7c-0.6,0.4-1.2,1-1.7,1.6l-0.8,1.1l1,0.9c0.7,0.7,1.4,1.4,2.1,2.1c0.9,0.9,1.8,1.8,2.8,2.8
		c-1.2,1.2-2.5,2.4-3.7,3.6c-1.4,1.3-2.9,2.7-4.4,4.2l-0.5,0.5l0.1,0.7c0,0.5,0.1,1.4,0.1,1.9l0.1,2.3l2.1-1.1
		c2.4-1.3,4.2-3.2,5.9-5c0.4-0.4,0.8-0.8,1.2-1.2c-0.1,3.5,0,7,0,10.5l0,0.8c-4.1,4.4-8.4,8.8-12.6,13c-1.9,1.9-3.8,3.8-5.6,5.7
		l-0.4,0.4v2.3l2.6,2.1l1-1c0.7-0.8,1.5-1.5,2.2-2.3c0.9-0.9,1.8-1.8,2.8-2.8c0.6,0.5,1.1,1.1,1.6,1.7c1.3,1.4,2.7,3,4.8,3.6
		l1.5,0.5l0.4-1.6c0.1-0.4,0.3-1.2,0.4-1.6l0.2-0.8l-0.6-0.6c-1.3-1.3-2.7-2.6-4.1-3.9c-0.3-0.2-0.5-0.5-0.8-0.7
		c1.5-1.6,3-3.2,4.6-4.8c0.7-0.7,1.4-1.5,2.2-2.2c-0.1,4.5-0.1,9.1,0,13.5c0,4.2,0,8.6,0,12.9c-0.7,0.3-1.4,0.7-2.1,1.1
		c-0.7,0.4-1.4,0.8-2.1,1.1c-2.4,0-4.8-0.6-7.4-1.4c0.5-0.5,1-1.1,1.6-1.6c1.4-1.3,3-2.7,3.7-4.8l0.6-1.7l-3.7-0.6l-0.5,0.4
		c-1.8,1.5-3.5,3.2-5.1,4.8c-0.5,0.5-1,1-1.5,1.5c-3.2-1.9-7-5.1-8.8-9.6c-1.8-4.2-2.1-8.9-2-12.7c1.7-1.7,3.4-3.4,5.1-5
		c3.5-3.3,7.1-6.8,10.2-10.5l0.7-0.9l-1.8-2.6l-1.1,0.4c-2.4,0.9-4.1,2.7-5.7,4.5c-0.8,0.8-1.5,1.7-2.3,2.3
		c-0.2-0.3-0.5-0.5-0.7-0.8c-2.1-2.1-4.2-4.3-6.6-6.2l-1.3-1l-1.1,1.8c-0.2,0.4-0.6,0.9-0.7,1.2l-0.6,1.1l1,0.8
		c2,1.7,4.5,3.8,6.7,6.4c-1.3,1.2-2.5,2.4-3.8,3.6c-0.3,0.3-0.5,0.5-0.8,0.8c-5.5-2.6-9.7-7.1-11.5-12.3c2.1-2,4.2-4.1,6.2-6.1
		c2-2,4-4,6.1-6c0.6,0.6,1.2,1.3,1.9,1.9c1.7,1.8,3.5,3.7,5.9,5l1.2,0.6l2.1-2.9l-0.7-0.9c-1.4-1.8-3-3.3-4.6-4.8
		c-0.8-0.7-1.6-1.5-2.3-2.2c1.4-1.5,2.9-2.9,4.3-4.3c1.3-1.3,2.7-2.6,4-4l0.5-0.5l-0.7-4.9l-2,1.4c-0.2,0.1-0.4,0.3-0.6,0.4l0.2-2.6
		l-0.3-0.4c-1.3-1.7-2.8-3.2-4.4-4.6c-0.8-0.7-1.6-1.4-2.3-2.2c0.1-4.5,1-10.6,5-15c2.2-2.6,5.5-4.7,10-6.3c0,0.8,0,1.7,0,2.5
		c0,3.3,0,6.6,0,9.9c-0.7,1.2-1.7,2.3-2.7,3.4c-0.9,1-1.9,2.1-2.7,3.4l-0.4,0.6l1.7,4.4l1.6-1.4c1.6-1.4,2.9-3,4.2-4.6
		c0.3-0.4,0.6-0.7,0.9-1.1c0.3,0.3,0.5,0.7,0.8,1.1c1.3,1.7,2.6,3.4,4.6,4.6l1.7,1l1.1-4.2l-0.4-0.6c-1.1-1.5-2.3-2.9-3.4-4.3
		c-0.7-0.8-1.3-1.6-2-2.4c0.1-5.3,0.1-9.8,0-13.8c1.2-0.2,2.3-0.3,3.3-0.3c0,0,0,0,0,0c0.6,0.2,1.2,0.5,1.8,0.8
		c0.7,0.4,1.5,0.7,2.3,1c0,3.2,0,6.4,0,9.7c0,4.1,0,8.2,0,12.4c-1.5,1.5-3,2.9-4.4,4.3c-2.7,2.6-5.5,5.3-8,8.1l-0.6,0.7l1,3h2.6
		l0.4-0.4c4.5-4.3,8.1-7.8,11.3-11.2c1.7,1.6,3.3,3.3,4.9,5c1.2,1.3,2.5,2.7,3.8,4c0,0.2,0,0.4,0,0.6c0.1,1.5,0.1,3.7,2.2,4.8
		c1.5,1.1,3.5,1.1,5.2,0.1c1.8-1,2.7-2.8,2.5-4.7c0-1.5-0.8-2.9-2.2-3.7c-1.3-0.8-2.8-1.1-4.2-0.8c-0.9-1-1.9-1.9-2.8-2.9
		c-2.3-2.3-4.7-4.7-6.8-7.2c0-3.9,0-8,0-11.8c0-3.3,0-6.7,0-10c0.6-0.2,1.2-0.5,1.7-0.8c0.9-0.5,1.8-0.9,2.7-1.1
		c1.2,0.1,2.4,0.4,3.7,0.6c0.2,0,0.3,0.1,0.5,0.1c0,1.4,0,2.7,0,4.1l0,1.8c-1.2,0.8-2,2-2.4,3.3c-0.3,1.2-0.2,2.4,0.4,3.5
		c0.7,1.8,2.6,2.9,4.7,2.8c2.1-0.1,3.8-1.4,4.3-3.2c1.4-2.8-0.6-5-2.1-6.3c-0.1-1.2-0.1-2.4-0.1-3.7c0-0.3,0-0.6,0-0.9
		c5.2,2.1,8.9,5,10.9,8.7c1.9,3.2,2.5,7,2.8,10.4c-2.9,0-5.8,0-8.6,0c-1,0-2,0-3,0c-0.1-0.2-0.3-0.3-0.4-0.5c-0.8-1-1.9-2.4-3.9-2.2
		c-1.7-0.2-3.3,0.7-4.3,2.2c-1,1.6-1.1,3.5-0.2,5c0.8,1.8,2.5,2.8,4.5,2.8c1.8-0.1,3.4-1,4.3-2.4c5.3,0,9.6,0,13.6,0
		c4.9,1.5,9.1,5.2,11.8,10.5c-2.3-0.1-4.6,0-6.8,0c-1.3,0-2.6,0-3.8,0c-1.3-2.1-3.8-2.7-5.9-2.2c-2.6,0.7-4,2.9-3.5,5.5
		c0.3,2.3,2,3.9,4.4,4.1c2.1,0.2,4-0.7,5-2.4c1,0,2.1,0,3.1,0c3.1,0,6.2,0,9.3,0c0.8,3.7,1,7.5,0.7,11.5l-7.7,0
		c-1.1-1.9-3.4-2.7-5.4-2.3c-2.5,0.4-4.1,2.4-4,4.8c-0.1,2.5,1.4,4.4,3.9,4.9c2,0.4,4.3-0.3,5.5-2.3c1.3,0,2.6,0,3.9,0c1,0,2,0,3,0
		c-1.8,6.3-6.2,11.6-12.1,14.2c-2-2.1-4-4.2-6-6.3C201.9,223.1,200.6,221.8,199.4,220.5z M186.5,248.6l0.8,1.3c0,0,0,0,0,0
		L186.5,248.6L186.5,248.6z M194.4,233.6L194.4,233.6c0.1,0,0.1,0,0.1,0L194.4,233.6C194.5,233.7,194.4,233.7,194.4,233.6z
		 M145.5,187c1.7,1.9,3.4,3.8,6.1,4.4l0.9,0.2c0,0-0.1,0-0.1,0.1l-0.2,0.2c-3.1,3-6.2,6-9.2,9c-4,3.9-8.1,8-12.2,11.9
		c-0.7-6.3-0.4-14.2,3.9-20.5c1.8-2.9,4.8-5.4,8.9-7.3C144.2,185.6,144.8,186.3,145.5,187z M189.7,197.3L189.7,197.3L189.7,197.3
		C189.7,197.3,189.7,197.3,189.7,197.3z M189.7,197.3L189.7,197.3c0.1,0,0.1,0,0.1,0L189.7,197.3
		C189.8,197.3,189.7,197.3,189.7,197.3z M189.9,182.2C189.9,182.2,189.9,182.2,189.9,182.2C189.9,182.2,189.9,182.2,189.9,182.2
		c-0.1,0-0.1-0.1-0.1-0.1C189.9,182.1,189.9,182.1,189.9,182.2z M204.6,197.6C204.6,197.6,204.6,197.6,204.6,197.6
		c-0.1,0-0.2,0-0.2,0c0,0,0,0,0-0.1c0,0,0.1,0,0.1,0C204.5,197.5,204.6,197.6,204.6,197.6z M209.8,214.1L209.8,214.1
		C209.8,214.1,209.8,214.1,209.8,214.1C209.8,214.1,209.8,214.1,209.8,214.1z"/>
	<g>
		<path d="M255.4,213.5l-0.1-1.6c-0.3-3.7,0.9-8.8,4.9-11.1c3.4-2,7.4-1.9,11.6-1.8c1.6,0,3.3,0.1,5,0l1.4-0.1l0-1.4c0-2,0-4,0-6
			l0-1.5l-1.5,0c-1.4,0-2.8,0-4.2,0c-2.5,0-5,0-7.6,0c-4.2,0.1-8.4,1.9-13.2,5.4l-0.1,0.1c-5.7,4.8-6.4,12.4-6.2,16.5l0,1.5H255.4z
			 M253.5,197.8c4.3-3.2,7.9-4.7,11.4-4.8c2.5-0.1,5,0,7.5,0c0.9,0,1.9,0,2.8,0c0,1,0,2,0,3c-1.1,0-2.2,0-3.4,0
			c-4.4-0.1-9-0.2-13.2,2.2c-4.6,2.6-6.3,7.8-6.4,12.3h-3.9C248.5,205.1,250.4,200.6,253.5,197.8z"/>
		<path d="M381.2,190c-4,0-8.1,0.1-12.1-0.1l-1.5,0l-0.1,1.5c-0.1,2-0.2,4-0.2,5.9l0,1.4l1.4,0.1c5.2,0.3,10.5,0.2,15.6,0.2
			c4.1,0,8.2-0.1,12.4,0.1l1.3,0l0.2-1.3c0.2-1.5,0.3-3,0.3-4.4c0-0.5,0-1.1,0-1.6l0.1-1.5l-1.5-0.1
			C391.9,189.9,386.5,189.9,381.2,190z M395.6,193.3c0,0.9,0,1.8-0.1,2.7c-3.7-0.1-7.5-0.1-11.1,0c-4.6,0-9.3,0.1-14-0.1
			c0-0.9,0-1.9,0.1-2.9c3.6,0.1,7.2,0,10.7,0c4.7,0,9.6-0.1,14.4,0.1C395.6,193.2,395.6,193.3,395.6,193.3z"/>
		<path d="M438.1,223.1l0.1-1.5l-1.5,0c-4-0.1-8.1-0.1-12.1-0.1c-2.1,0-4.2,0-6.3,0l0-4.7c0-8.3,0-16.9,0-25.3l0-1.5l-1.8,0
			c-2.1,0-4.1,0-6.2,0l-1.5,0l0,1.5c0,5.8,0,11.6,0,17.4c0,6.6,0,13.4,0,20.1l0,1.5h1.5c2.5,0,5,0,7.5,0c2.5,0,5,0,7.5,0
			c3.8,0,7.6-0.1,11.4-0.2l1.5-0.1l-0.1-1.5C438,227,438,225.2,438.1,223.1z M417.9,227.5c-2,0-4,0-6,0c0-6.2,0-12.5,0-18.6
			c0-5.3,0-10.6,0-15.9c1.1,0,2.3,0,3.5,0c0,7.9,0,16,0,23.8l0,7.7l1.5,0c2.6,0,5.2,0,7.8,0c3.4,0,7,0,10.5,0c0,1,0,1.9,0,2.8
			C429.4,227.6,423.5,227.5,417.9,227.5z"/>
		<path d="M474.9,205.8c-0.7-1.8-1.4-3.7-2-5.5c-1.1-3.1-2.3-6.3-3.6-9.5l-0.4-1l-1.7,0.1c-2,0.1-3.9,0.2-5.7-0.1l-2-0.4l0.2,2
			c0.3,2.3,1.1,4.4,1.9,6.4c0.4,1.1,0.9,2.2,1.2,3.4c2.2,6.5,4.6,13,7,19.2c1.1,3,2.3,5.9,3.4,8.9l0.3,0.9l1,0.1
			c1.7,0.1,3.4,0.2,5.3,0.2c0.7,0,1.4,0,2.1,0l2.1,0l-1.2-3.3C480.1,220.2,477.5,212.9,474.9,205.8z M475.6,227.4c-1-2.7-2-5.4-3-8
			c-2.4-6.2-4.8-12.7-7-19.1c-0.4-1.2-0.8-2.4-1.3-3.5c-0.5-1.3-1-2.5-1.3-3.8c1.3,0.1,2.6,0,3.9,0c1.1,2.7,2.1,5.6,3.1,8.3
			c0.7,1.9,1.3,3.7,2,5.6c2.6,6.9,5.1,13.9,7.6,20.7C478.2,227.5,476.9,227.5,475.6,227.4z"/>
		<path d="M525.9,189.7l-2.9,0.2c-2.3,0.1-4.7,0.2-7.1,0.1l-0.8,0l-0.5,0.7c-1.3,2-2.6,4.1-3.9,6.1c-2.1,3.3-4.2,6.6-6.5,9.9
			c-3.3-5.2-6.7-10.5-10-15.5l-0.8-1.2l-0.8,0c-1.7,0-3.5,0-5.2,0.1l-3.2,0l0,1.5c-0.1,3.7-0.1,7.4-0.1,10.9c0,2.6,0,5.1,0,7.7
			c0,2.9,0,5.8,0,8.7c0,3.4,0,6.8,0,10.2l0,1.5l1.5,0c2.2,0,4.5,0,6.7,0h1.5l0-1.5c0-4.5,0-9.2,0-13.6c0-2.7,0-5.4,0-8.2
			c2.1,3.1,4.2,6.2,6.2,9.3c1,1.5,2,3,3,4.5l1.2,1.9l1.3-1.8c6.3-9.1,12.6-18.9,18.9-28.9L525.9,189.7z M504.2,217.5
			c-0.6-0.9-1.2-1.8-1.8-2.7c-2.9-4.4-5.9-9-9-13.3l-2.8-3.8l0,4.7c0,4.3,0,8.7,0,12.9c0,4,0,8.1,0,12.1c-1.2,0-2.4,0-3.7,0
			c0-2.9,0-5.8,0-8.7c0-2.9,0-5.8,0-8.6c0-2.6,0-5.1,0-7.7c0-3.1,0-6.3,0-9.4l0.3,0c1.5,0,2.9,0,4.4,0c3.6,5.6,7.4,11.5,11,17.3
			l1.2,1.9l1.3-1.9c2.7-3.9,5.3-8,7.8-11.9c1.1-1.8,2.3-3.6,3.5-5.4c1.2,0,2.4,0,3.6,0C515,201.5,509.6,209.7,504.2,217.5z"/>
		<path d="M317.9,189.9l-1.6,0c-4.2,0-8.5,0-12.6,0c-5.1,0-10.4,0-15.6,0.1l-1.5,0l0,1.5c0.1,2,0,3.9,0,5.8l0,1.5l1.5,0
			c5.4,0.2,10.8,0.1,16.1,0.1c4,0,8.1,0,12.1,0l1.6,0l0-1.6c0-2.1,0-4.1,0-6L317.9,189.9z M314.8,196c-3.6,0-7.2,0-10.7,0
			c-4.8,0-9.6,0-14.5-0.1c0-1,0-1.9,0-2.9c4.7-0.1,9.4-0.1,14,0c3.6,0,7.4,0,11.1,0C314.8,194,314.8,195,314.8,196z"/>
		<path d="M338,220.9l-0.7-3.1c-1.8-8.5-3.7-17.2-5.9-26.5l-0.3-1.2H330c-1.8,0-3.9,0-6.1-0.1l-1.9,0l1,4.7
			c0.9,4.3,1.7,8.5,2.6,12.8c1.5,7.1,3,14.5,4.4,21.8l0.2,1.2l1.2,0.1c1.8,0.1,3.6,0.1,5.5,0.1c0.4,0,0.9,0,1.3,0l1.9,0l-0.4-1.8
			C339.1,226.1,338.6,223.5,338,220.9z M332.8,227.5c-1.3-6.9-2.8-13.9-4.2-20.7c-0.9-4.3-1.7-8.5-2.6-12.8l-0.2-1c1.1,0,2.1,0,3,0
			c2.1,8.9,3.9,17.2,5.6,25.3l0.7,3.2c0.4,2,0.9,4,1.3,6C335.1,227.5,333.9,227.5,332.8,227.5z"/>
		<path d="M350.5,214.4c-1.9-7.5-3.8-15.3-6-22.9l-1.3-4.5l-1.6,4.4c-1.9,5.1-3.4,10.4-4.7,15.3l-0.1,0.3l0,0.3c0.1,2,0.6,4,1.1,5.9
			c0.4,1.7,0.8,3.3,1,5l0.7,6.7l2.2-6.4c0,0,0-0.1,0.1-0.1c0.2,0.8,0.4,1.6,0.6,2.5c0.6,2.5,1.2,4.9,1.8,7.4l0.2,0.7
			c0.1,0.3,0.2,0.5,0.3,0.7l0.4,1l1,0c0.5,0,1,0,1.6,0c0.8,0,1.7,0,2.5,0c0.8,0,1.7,0,2.5,0h1.9l-0.5-1.9
			C352.9,223.9,351.7,219.1,350.5,214.4z M350.1,227.5c-1,0-2,0-3,0c0,0,0-0.1,0-0.1c-0.6-2.4-1.2-4.9-1.7-7.3
			c-0.6-2.5-1.2-4.9-1.8-7.4l-1.2-4.8l-1.6,4.4c-0.4-1.7-0.8-3.4-0.9-5.1c0.9-3.3,1.9-6.8,3-10.2c1.6,6,3.2,12.2,4.7,18.1
			c1,4.1,2.1,8.2,3.1,12.4C350.5,227.5,350.3,227.5,350.1,227.5z"/>
		<path d="M355.8,189.9l-1.3-0.1l-0.3,1.2c-0.6,2.1-1.2,4.2-1.8,6.3c-0.9,3.1-1.8,6.3-2.6,9.4l-0.1,0.4l0.1,0.4
			c0.2,0.9,0.4,1.7,0.6,2.6c0.6,2.9,1.3,5.9,2.7,8.7l1.9,3.7l0.9-4c1.5-6.4,3.3-12.9,5-19.1c0.7-2.5,1.4-5,2-7.4l0.5-2l-2.1,0.1
			C359.3,190.1,357.5,190,355.8,189.9z M358,198.5c-1.3,4.7-2.6,9.5-3.9,14.4c-0.3-1.1-0.6-2.3-0.8-3.5c-0.2-0.8-0.3-1.6-0.5-2.3
			c0.8-3,1.7-6.1,2.5-9c0.5-1.7,1-3.4,1.4-5.1c0.9,0,1.8,0.1,2.8,0.1C359,194.8,358.5,196.6,358,198.5z"/>
		<path d="M461,205.2c-0.7-1.9-1.4-3.6-1.9-5.5l-1-4.1l-1.8,3.8c-2.5,5.2-4.7,10.7-6.7,16c-1.7,4.3-3.5,8.7-5.4,13l-1,2.2l2.4-0.1
			c0.8,0,1.5,0,2.3,0c1.6,0,3.3,0,5.1-0.2l0.9-0.1l0.3-0.9c1.5-4.1,3.3-8.2,4.9-12.2c1.1-2.5,2.1-5.1,3.1-7.7l0.2-0.5l-0.2-0.5
			C461.8,207.4,461.4,206.3,461,205.2z M456.3,216.1c-1.5,3.7-3.1,7.5-4.6,11.4c-1.3,0.1-2.5,0.1-3.8,0.1c1.6-3.7,3-7.4,4.5-11
			c1.6-4.1,3.3-8.3,5.1-12.3c0.3,0.7,0.5,1.4,0.8,2.1c0.3,0.9,0.7,1.8,1,2.7C458.2,211.3,457.2,213.7,456.3,216.1z"/>
		<path d="M524.5,218.3c0-5.5,0-11.1-0.1-16.7l-0.1-4.2l-2.6,3.2c-2.6,3.3-4.9,6.6-6.7,9.8l-0.2,0.3l0,0.4c-0.1,2.9,0,5.9,0,8.7
			c0,2.9,0,6,0,8.9l0,1.5l1.5,0c1.7,0,3.4,0.1,5.1,0.1c0.6,0,1.1,0,1.7,0l1.5,0l0-1.5C524.5,225.4,524.5,221.9,524.5,218.3z
			 M521.5,218.3c0,3.1,0,6.1,0,9.2c-1.2,0-2.4,0-3.7,0c0-2.5,0-5.1,0-7.5c0-2.7,0-5.5,0-8.3c1.1-1.9,2.3-3.7,3.6-5.6
			C521.5,210.2,521.5,214.3,521.5,218.3z"/>
		<path d="M286.7,214.5l1.5,0c2.7,0,5.3,0,8,0c2.2,0,4.5,0,6.8,0c3.6,0,7.1,0,10.7-0.2l1.5-0.1l-0.1-1.5c-0.1-1.8-0.1-3.6,0-5.6
			l0.1-1.5l-1.5-0.1c-5.7-0.2-11.5-0.2-17.1-0.1c-2.8,0-5.6,0-8.3,0l-1.5,0l0,1.5c0,2,0,4,0,5.9L286.7,214.5z M289.7,208.5
			c2.3,0,4.6,0,6.9,0c5.1,0,10.3-0.1,15.5,0.1c0,1,0,1.9,0,2.9c-5.3,0.1-10.7,0.1-15.9,0.1c-2.2,0-4.3,0-6.5,0
			C289.7,210.5,289.7,209.5,289.7,208.5z"/>
		<path d="M395.9,205.5l-1.5,0c-5.4,0-10.8,0-16.2,0c-3.1,0-6.1,0-9.2,0l-1.5,0v1.5c0,2,0,4,0,6l0,1.5l7.9,0c2.1,0,4.2,0,6.3,0
			c4.2,0,8.5,0,12.7,0l1.5,0l0-1.5c0-2.3,0-4.2,0-6L395.9,205.5z M375.3,211.5l-4.8,0c0-1,0-2,0-3c2.6,0,5.1,0,7.7,0
			c4.9,0,9.8,0,14.7,0c0,0.9,0,1.9,0,3C387,211.5,381.2,211.5,375.3,211.5z"/>
		<path d="M278.2,207.8l-1.4,0c-2.7,0-5,0-7,0l-1.5,0l0.1,1.5c0.1,3.6-1.1,8.5-5.1,10.5c-3.4,1.8-7.4,1.7-11.5,1.6
			c-1.6,0-3.3-0.1-4.9,0l-1.4,0.1l0,1.4c0,1.3,0,2.7,0,4l0,3.5l1.5,0c1.2,0,2.3,0,3.5,0c0.8,0,1.6,0,2.5,0c4.6,0,9.2-0.2,13.5-2
			c7.3-2.8,12.3-10.9,11.9-19.3L278.2,207.8z M265.3,225.7c-4.6,1.9-9.8,1.9-14.9,1.8c-0.7,0-1.4,0-2,0l0-0.5c0-0.8,0-1.7,0-2.5
			c1.1,0,2.2,0,3.3,0c4.4,0.1,8.8,0.2,13-2c4.6-2.4,6.5-7.4,6.7-11.8c1.2,0,2.5,0,4,0C275.1,217.3,271.1,223.5,265.3,225.7z"/>
		<path d="M317.7,223l0-1.5l-1.5,0c-4.2,0-8.5,0-12.7,0c-5.1,0-10.2,0-15.3,0l-1.5,0l0,1.5c0,2,0,4,0,5.9l0,1.5l1.5,0
			c5.1,0,10.2,0,15.3,0c4.2,0,8.5,0,12.8,0l1.5,0l0-1.5C317.7,227.1,317.7,225.1,317.7,223z M307.9,227.5c-1.5,0-2.9,0-4.4,0
			c-4.6,0-9.2,0-13.8,0c0-1,0-2,0-3c4.6,0,9.2,0,13.8,0c3.7,0,7.5,0,11.2,0c0,1,0,2,0,3C312.4,227.5,310.2,227.5,307.9,227.5z"/>
		<path d="M367.5,230.5l1.5,0c4,0,8,0,12,0c5.3,0,10.7,0,16,0l1.5,0l0-1.5c0-2,0-4,0-6v-1.5h-31V230.5z M370.5,224.5h25c0,1,0,2,0,3
			c-3,0-5.9,0-8.9,0c-1.9,0-3.8,0-5.7,0c-3.5,0-7,0-10.5,0V224.5z"/>
	</g>
</g>
</svg>
