<?xml version="1.0" encoding="UTF-8" ?>
<!DOCTYPE svg PUBLIC "-//W3C//DTD SVG 1.1//EN" "http://www.w3.org/Graphics/SVG/1.1/DTD/svg11.dtd">
<svg width="353pt" height="96pt" viewBox="0 0 353 96" version="1.1" xmlns="http://www.w3.org/2000/svg">
<g id="#aaaa7fff">
<path fill="#aaaa7f" opacity="1.00" d=" M 28.91 19.37 C 34.08 9.18 45.86 3.38 57.04 4.14 C 66.44 5.32 75.93 10.36 80.11 19.22 C 90.06 18.73 100.85 23.43 105.21 32.78 C 106.16 34.38 105.85 36.83 107.68 37.77 C 108.01 40.93 107.83 44.21 106.00 46.91 C 103.43 54.30 96.63 59.32 89.31 61.43 C 89.33 71.63 89.29 81.83 89.33 92.03 C 78.10 89.35 66.51 88.78 55.00 88.59 C 43.80 88.76 32.51 89.31 21.60 92.00 C 21.55 89.69 21.61 87.38 21.83 85.07 C 35.65 81.97 49.74 79.41 63.96 79.83 L 64.00 79.24 C 57.12 77.55 50.04 76.78 42.98 76.38 C 35.80 76.32 28.69 77.52 21.65 78.78 C 21.66 74.60 21.51 70.41 21.76 66.23 C 39.81 59.87 59.09 57.99 78.13 57.98 C 82.79 56.05 85.75 51.19 86.27 46.28 C 79.96 54.00 69.61 56.47 60.09 57.03 C 53.50 57.02 46.29 55.38 41.68 50.33 C 37.80 45.92 35.60 40.16 34.89 34.38 C 32.70 40.80 34.40 47.95 37.52 53.78 C 37.96 54.98 39.52 56.64 37.99 57.71 C 34.10 59.33 29.69 58.17 26.51 55.60 C 22.57 52.93 20.40 48.58 18.62 44.32 C 17.40 50.69 22.46 55.25 24.86 60.49 C 19.70 62.92 14.27 59.84 10.07 56.89 C 3.27 51.78 -1.30 41.90 2.94 33.81 C 6.91 23.69 18.51 18.42 28.91 19.37 Z" />
<path fill="#aaaa7f" opacity="1.00" d=" M 208.06 21.58 C 211.21 20.97 214.42 20.98 217.61 20.70 C 217.61 33.14 217.66 45.57 217.57 58.01 C 223.27 52.06 229.06 46.22 234.69 40.21 C 233.40 39.66 232.13 39.08 231.07 38.16 C 235.03 37.81 238.95 38.95 242.89 39.27 C 243.15 41.45 240.01 40.64 239.11 42.19 C 234.82 47.02 229.95 51.36 225.91 56.40 C 230.83 62.05 235.62 67.82 240.43 73.56 C 241.40 75.04 243.57 75.05 244.32 76.73 C 241.67 77.40 239.00 78.00 236.28 78.30 C 230.66 71.81 225.25 65.13 219.44 58.80 C 219.01 59.41 218.15 60.61 217.72 61.22 C 217.59 66.08 217.35 70.99 217.94 75.83 C 218.67 76.26 221.72 75.79 220.55 77.40 C 216.54 78.24 212.40 78.00 208.33 78.25 L 207.75 77.20 C 208.52 77.07 210.04 76.80 210.81 76.67 C 211.26 58.94 211.02 41.15 210.92 23.40 C 209.72 23.19 208.72 22.61 208.06 21.58 Z" />
<path fill="#aaaa7f" opacity="1.00" d=" M 122.74 22.04 C 130.35 22.11 137.98 21.82 145.59 22.19 C 152.41 22.59 160.45 26.44 161.12 34.05 C 162.70 41.17 156.65 48.82 149.28 48.41 C 152.66 49.47 156.40 50.21 159.06 52.79 C 163.80 56.67 164.33 63.77 162.10 69.14 C 159.38 74.75 153.13 78.12 146.99 78.03 C 138.87 77.98 130.75 78.01 122.63 78.00 L 122.69 76.55 C 124.12 76.33 126.43 76.58 126.32 74.46 C 126.49 59.65 126.30 44.83 126.40 30.01 C 126.44 28.04 126.38 26.05 125.96 24.10 C 124.86 23.88 123.76 23.66 122.67 23.44 L 122.74 22.04 M 133.31 27.82 C 133.43 34.34 133.27 40.85 133.41 47.37 C 138.30 47.22 143.47 48.01 148.13 46.14 C 156.09 43.03 155.42 29.18 147.11 26.99 C 142.63 25.75 137.42 25.25 133.31 27.82 M 133.37 51.38 C 133.38 58.10 133.28 64.83 133.39 71.55 C 134.65 73.85 137.70 73.99 140.03 74.04 C 144.63 74.20 149.95 74.00 153.39 70.51 C 157.08 65.21 156.47 56.18 150.50 52.76 C 145.11 50.40 139.06 51.65 133.37 51.38 Z" />
<path fill="#aaaa7f" opacity="1.00" d=" M 179.45 38.24 C 184.40 36.87 189.97 36.98 194.65 39.22 C 198.30 40.95 199.94 45.15 199.97 48.99 C 200.02 58.01 199.89 67.03 200.03 76.05 C 202.18 76.54 202.20 74.44 202.64 72.95 C 204.71 73.27 203.26 75.47 202.50 76.45 C 200.74 78.26 197.22 80.22 195.10 77.94 C 194.15 76.40 193.99 74.58 193.86 72.83 C 189.18 80.92 176.26 81.27 170.74 73.97 C 168.17 70.53 168.02 65.57 169.83 61.77 C 174.51 53.87 184.97 50.80 193.47 53.79 C 193.01 50.25 194.58 45.38 191.04 43.02 C 186.24 40.04 180.10 41.64 175.29 43.62 C 175.74 44.25 176.64 45.52 177.09 46.15 C 176.31 48.87 171.39 46.58 172.39 44.04 C 173.30 40.89 176.60 39.28 179.45 38.24 M 175.68 67.90 C 175.98 73.23 182.41 76.62 187.08 74.27 C 192.63 72.15 194.20 65.34 193.20 60.04 C 192.97 58.11 191.14 57.17 189.85 55.99 C 182.97 54.99 174.82 60.40 175.68 67.90 Z" />
<path fill="#aaaa7f" opacity="1.00" d=" M 255.59 40.35 C 262.28 36.31 271.91 36.55 277.60 42.26 C 280.55 44.83 282.01 48.61 282.71 52.37 C 272.85 55.69 262.99 59.03 253.16 62.46 C 254.54 67.44 257.28 72.66 262.50 74.42 C 269.26 76.80 276.26 73.23 280.87 68.33 C 281.10 69.22 281.54 71.01 281.77 71.91 C 274.68 81.29 258.83 81.60 251.31 72.58 C 242.90 63.42 244.79 46.84 255.59 40.35 M 257.52 44.54 C 253.93 48.20 253.02 53.64 252.99 58.56 C 260.20 55.86 267.43 53.17 274.55 50.22 C 273.88 47.13 272.56 43.82 269.51 42.39 C 265.55 40.83 260.68 41.68 257.52 44.54 Z" />
<path fill="#aaaa7f" opacity="1.00" d=" M 302.05 39.06 C 305.03 37.31 308.70 37.35 311.93 38.34 C 315.33 37.85 318.79 37.98 322.22 38.02 C 322.26 40.06 320.22 39.58 318.86 39.83 C 322.22 49.44 328.31 57.95 331.40 67.65 C 332.29 67.17 332.40 65.81 332.93 64.99 C 336.19 57.29 339.84 49.76 343.00 42.02 C 343.08 41.51 343.25 40.51 343.33 40.00 C 342.35 39.42 339.88 40.16 340.19 38.33 C 343.65 37.42 347.33 38.32 350.86 38.54 C 350.96 40.02 349.39 40.03 348.36 40.44 C 341.69 55.63 334.71 70.69 327.94 85.83 C 326.45 89.62 323.69 94.03 318.92 93.12 C 316.34 91.93 315.05 85.29 319.27 86.96 C 320.67 88.45 318.49 89.90 317.90 91.19 C 319.97 90.85 321.71 89.44 322.47 87.48 C 324.38 83.23 326.48 79.07 328.27 74.77 C 323.54 63.24 317.38 52.27 312.59 40.74 C 311.22 42.72 309.30 44.64 306.63 44.09 C 306.83 43.09 307.15 42.13 307.60 41.22 C 306.19 41.53 304.82 41.88 303.42 42.17 C 298.36 45.70 296.89 52.13 296.07 57.87 C 295.85 63.87 296.00 69.88 296.01 75.88 C 297.33 75.98 298.65 76.09 299.98 76.20 C 299.91 76.60 299.78 77.39 299.71 77.78 C 295.28 78.08 290.84 78.28 286.42 78.66 L 286.37 77.05 C 288.14 77.40 289.60 76.83 289.37 74.86 C 289.38 63.93 289.41 52.99 289.36 42.05 C 289.37 40.41 286.89 40.37 286.60 38.79 C 289.61 38.53 292.61 38.25 295.61 37.92 C 295.63 41.24 295.70 44.56 295.40 47.87 C 296.79 44.45 298.58 40.79 302.05 39.06 Z" />
</g>
</svg>
