<?xml version="1.0" encoding="UTF-8" ?>
<!DOCTYPE svg PUBLIC "-//W3C//DTD SVG 1.1//EN" "http://www.w3.org/Graphics/SVG/1.1/DTD/svg11.dtd">
<svg width="349pt" height="149pt" viewBox="0 0 349 149" version="1.1" xmlns="http://www.w3.org/2000/svg">
<g id="#ff305bff">
<path fill="#ff305b" opacity="1.00" d=" M 89.31 47.49 C 100.41 47.56 111.52 47.56 122.63 47.49 C 122.60 50.50 122.59 53.50 122.63 56.51 C 114.91 56.38 107.20 56.56 99.48 56.41 C 99.60 60.13 99.61 63.87 99.48 67.59 C 106.18 67.44 112.89 67.61 119.59 67.49 C 119.54 70.50 119.54 73.50 119.59 76.51 C 112.89 76.39 106.18 76.56 99.48 76.41 C 99.68 83.10 99.50 89.80 99.58 96.50 C 96.16 96.45 92.73 96.46 89.31 96.50 C 89.29 80.16 89.29 63.83 89.31 47.49 Z" />
<path fill="#ff305b" opacity="1.00" d=" M 170.41 47.50 C 173.80 47.55 177.19 47.55 180.59 47.50 C 180.47 55.96 180.74 64.42 180.43 72.87 C 183.48 68.41 187.25 64.50 190.80 60.44 C 194.69 60.66 198.60 60.38 202.49 60.68 C 199.11 65.62 194.38 69.41 190.48 73.93 C 195.06 81.21 199.53 88.63 203.25 96.39 C 199.81 96.45 196.37 96.62 192.93 96.37 C 189.57 91.50 187.26 86.01 184.15 80.99 C 182.91 82.63 180.43 83.75 180.59 86.10 C 180.52 89.56 180.53 93.03 180.59 96.50 C 177.20 96.45 173.80 96.45 170.41 96.50 C 170.44 80.17 170.44 63.83 170.41 47.50 Z" />
<path fill="#ff305b" opacity="1.00" d=" M 207.51 47.52 C 211.17 47.53 214.83 47.54 218.49 47.52 C 218.45 50.51 218.45 53.49 218.49 56.48 C 214.83 56.46 211.16 56.46 207.50 56.48 C 207.56 53.49 207.54 50.51 207.51 47.52 Z" />
<path fill="#ff305b" opacity="1.00" d=" M 142.16 59.75 C 147.76 58.75 153.88 59.91 158.13 63.85 C 162.01 67.42 164.90 72.59 164.55 77.98 C 165.23 85.71 160.02 93.40 152.88 96.22 C 146.19 99.23 138.01 97.15 132.80 92.20 C 127.42 86.27 125.67 76.96 129.56 69.77 C 131.77 64.54 136.81 61.14 142.16 59.75 M 143.49 67.73 C 140.98 68.87 138.64 71.20 138.53 74.09 C 138.39 77.31 138.33 80.54 138.61 83.76 C 139.71 89.32 147.55 91.72 151.44 87.45 C 155.32 82.86 155.44 75.64 152.30 70.62 C 150.47 67.70 146.67 66.77 143.49 67.73 Z" />
<path fill="#ff305b" opacity="1.00" d=" M 235.43 65.93 C 236.98 59.97 245.04 57.03 249.49 61.76 C 249.58 64.87 247.56 67.57 247.15 70.63 C 244.52 69.97 240.94 68.26 238.79 70.76 C 237.03 73.08 236.55 76.11 236.55 78.95 C 236.59 84.80 236.54 90.65 236.59 96.50 C 233.19 96.45 229.80 96.45 226.41 96.50 C 226.44 84.50 226.44 72.49 226.41 60.49 C 229.51 60.56 232.60 60.56 235.69 60.49 C 235.63 62.30 235.45 64.11 235.43 65.93 Z" />
<path fill="#ff305b" opacity="1.00" d=" M 207.50 60.52 C 211.16 60.54 214.83 60.53 218.50 60.53 C 218.45 72.51 218.45 84.49 218.50 96.48 C 214.83 96.46 211.17 96.46 207.50 96.48 C 207.55 84.49 207.55 72.51 207.50 60.52 Z" />
</g>
</svg>
