<?xml version="1.0" encoding="UTF-8" ?>
<!DOCTYPE svg PUBLIC "-//W3C//DTD SVG 1.1//EN" "http://www.w3.org/Graphics/SVG/1.1/DTD/svg11.dtd">
<svg width="328pt" height="74pt" viewBox="0 0 328 74" version="1.1" xmlns="http://www.w3.org/2000/svg">
<g id="#00aa7fff">
<path fill="#00aa7f" opacity="1.00" d=" M 208.95 0.00 L 226.32 0.00 C 226.28 5.73 226.40 11.47 226.25 17.20 C 223.73 13.76 222.39 9.58 219.74 6.26 C 216.38 3.79 212.40 2.33 208.95 0.00 Z" />
<path fill="#00aa7f" opacity="1.00" d=" M 182.72 4.24 L 183.99 4.30 C 184.00 4.96 184.01 6.29 184.01 6.95 C 185.96 7.12 188.24 6.73 189.75 8.28 C 190.99 10.18 190.47 12.52 190.48 14.64 C 194.02 12.50 197.35 10.01 201.01 8.06 C 206.69 7.38 212.46 7.59 218.17 7.98 C 218.24 9.42 217.81 10.73 216.45 11.38 C 208.48 16.81 200.48 22.19 192.45 27.51 C 191.55 28.16 190.33 28.78 190.58 30.10 C 190.43 37.36 190.74 44.62 190.47 51.88 C 190.45 55.32 186.49 55.19 184.04 55.05 C 183.99 55.87 183.91 57.51 183.87 58.33 C 182.25 57.91 182.66 56.26 182.48 55.02 C 181.00 55.01 179.51 55.00 178.03 54.99 C 177.35 54.30 176.68 53.62 176.00 52.93 C 176.03 38.55 175.94 24.17 176.03 9.79 C 176.67 6.82 180.21 7.11 182.55 6.80 C 182.59 6.16 182.68 4.88 182.72 4.24 M 178.01 9.06 C 177.22 15.69 177.83 22.38 177.64 29.04 C 177.82 37.03 177.25 45.06 177.97 53.03 C 180.62 53.34 183.30 53.51 185.98 53.36 C 187.31 53.38 189.23 52.92 188.92 51.16 C 189.09 38.08 188.98 25.00 188.98 11.93 C 189.15 10.68 188.62 8.78 187.01 8.96 C 184.01 8.72 181.01 8.90 178.01 9.06 Z" />
<path fill="#00aa7f" opacity="1.00" d=" M 54.90 7.93 C 59.00 7.72 63.11 7.72 67.22 7.87 C 68.41 18.19 68.15 28.75 66.84 39.06 C 65.80 47.05 59.54 53.86 51.60 55.42 C 44.30 56.75 35.46 56.66 29.91 50.96 C 25.97 47.02 25.48 41.19 24.73 35.97 C 16.56 34.73 8.24 35.72 0.00 35.39 L 0.00 33.86 C 12.28 33.98 24.58 33.23 36.85 33.86 C 37.56 37.53 37.87 42.56 42.15 43.87 C 47.21 45.95 52.95 42.26 53.83 37.05 C 55.06 27.39 53.54 17.57 54.90 7.93 Z" />
<path fill="#00aa7f" opacity="1.00" d=" M 89.42 8.47 C 97.11 6.78 105.90 7.76 112.04 13.06 C 122.08 21.52 122.62 38.36 113.98 47.99 C 104.96 58.48 86.63 59.11 77.15 48.94 C 70.66 41.73 69.63 30.59 73.47 21.87 C 76.33 15.24 82.43 10.20 89.42 8.47 M 91.64 19.88 C 83.51 23.27 81.94 35.25 87.34 41.64 C 90.82 45.45 97.08 46.13 101.33 43.20 C 107.07 39.42 108.59 31.11 105.79 25.09 C 103.46 19.91 96.78 17.53 91.64 19.88 Z" />
<path fill="#00aa7f" opacity="1.00" d=" M 141.41 8.60 C 149.76 6.52 159.50 7.94 165.81 14.16 C 175.31 23.79 174.56 41.45 164.27 50.25 C 154.89 58.27 139.24 58.35 130.30 49.63 C 124.00 43.45 122.63 33.74 124.66 25.45 C 126.75 17.38 133.33 10.71 141.41 8.60 M 144.55 19.71 C 137.20 22.19 135.38 31.56 137.69 38.15 C 139.65 43.82 146.81 46.70 152.18 44.07 C 159.44 40.88 161.65 30.80 157.81 24.22 C 155.35 19.68 149.26 17.84 144.55 19.71 Z" />
<path fill="#00aa7f" opacity="1.00" d=" M 229.06 8.04 C 234.28 6.93 239.66 7.57 244.95 7.52 C 251.30 7.85 257.71 6.83 264.02 7.97 C 264.16 11.04 264.16 14.10 264.08 17.17 C 262.76 17.71 261.36 18.05 259.93 17.98 C 253.96 17.98 247.98 17.92 242.01 18.01 C 241.75 20.66 241.75 23.33 242.00 25.98 C 247.97 26.70 254.29 25.05 260.04 26.99 C 259.98 30.01 259.99 33.02 260.04 36.04 C 254.29 38.03 247.97 36.44 241.98 37.01 C 241.75 39.64 241.82 42.29 242.08 44.92 C 249.35 45.11 256.62 44.90 263.89 45.04 C 264.45 48.31 264.28 51.64 263.86 54.92 C 252.52 55.17 241.18 54.84 229.84 55.08 C 227.97 52.43 228.81 49.09 228.69 46.07 C 228.97 33.40 228.19 20.67 229.06 8.04 Z" />
<path fill="#00aa7f" opacity="1.00" d=" M 266.85 7.87 C 273.59 7.59 280.34 7.80 287.08 7.98 C 292.46 8.07 297.97 10.48 301.09 14.98 C 304.17 19.26 304.91 25.11 302.70 29.94 C 301.08 34.21 296.88 36.56 293.07 38.62 C 297.22 43.50 301.17 48.76 306.20 52.75 C 313.18 53.57 320.26 52.80 327.28 53.21 L 327.91 53.88 L 327.60 54.93 C 317.39 55.12 307.17 54.92 296.96 55.03 C 294.80 55.06 292.21 55.13 290.79 53.18 C 287.00 48.60 283.36 43.87 279.04 39.78 C 278.87 44.07 279.23 48.37 278.88 52.65 C 277.85 55.43 274.35 54.87 272.00 55.05 C 269.98 55.04 266.65 55.61 266.44 52.74 C 266.25 39.84 266.39 26.92 266.29 14.00 C 266.24 11.94 266.41 9.89 266.85 7.87 M 279.02 17.92 C 279.00 21.39 279.02 24.86 279.00 28.33 C 280.52 30.07 282.89 29.56 284.94 29.65 C 287.60 29.59 290.91 30.08 292.67 27.54 C 295.34 24.28 293.10 19.02 289.13 18.15 C 285.78 17.66 282.38 17.79 279.02 17.92 Z" />
<path fill="#00aa7f" opacity="1.00" d=" M 194.46 33.46 C 197.30 31.93 199.91 29.94 202.94 28.81 C 208.20 34.66 212.78 41.11 217.77 47.19 C 219.66 49.82 222.21 52.05 223.40 55.13 C 218.31 55.31 213.22 55.30 208.13 55.14 C 203.06 48.73 197.86 42.42 192.77 36.03 C 191.69 34.80 193.59 34.00 194.46 33.46 M 193.55 35.27 C 198.78 41.49 203.50 48.22 209.05 54.11 C 213.33 54.36 217.62 54.13 221.91 54.18 C 215.52 46.07 209.12 37.97 202.66 29.92 C 199.62 31.70 196.58 33.48 193.55 35.27 Z" />
<path fill="#00aa7f" opacity="1.00" d=" M 178.13 63.59 C 180.79 64.58 181.80 67.44 183.32 69.59 C 184.81 67.59 185.41 64.13 188.37 63.82 C 188.43 67.21 188.40 70.61 188.37 74.00 L 186.52 74.00 C 186.55 71.94 186.56 69.89 186.59 67.84 C 185.60 69.61 184.17 71.09 183.08 72.81 C 182.04 71.19 181.01 69.56 180.01 67.93 C 180.00 69.95 180.00 71.98 179.98 74.00 L 178.00 74.00 C 177.98 70.53 177.92 67.05 178.13 63.59 Z" />
<path fill="#00aa7f" opacity="1.00" d=" M 196.43 63.80 C 196.90 63.98 197.82 64.34 198.28 64.52 C 199.89 67.46 200.73 70.77 201.60 74.00 L 200.03 74.00 C 199.49 73.23 198.96 72.45 198.44 71.67 C 197.63 71.75 196.81 71.81 196.00 71.88 C 195.67 72.41 195.01 73.47 194.67 74.00 L 192.80 74.00 C 194.14 70.65 195.24 67.21 196.43 63.80 M 197.30 67.34 C 196.38 67.83 195.66 69.78 197.03 70.19 C 198.94 70.74 198.81 67.37 197.30 67.34 Z" />
<path fill="#00aa7f" opacity="1.00" d=" M 206.39 64.01 C 208.96 63.48 207.94 66.54 208.31 68.01 C 209.19 68.02 210.94 68.03 211.81 68.04 C 212.10 66.33 211.71 64.02 213.95 63.58 C 214.06 67.05 213.99 70.53 214.00 74.00 L 212.16 74.00 C 212.09 72.66 212.03 71.33 211.96 70.00 C 210.69 70.00 209.42 70.01 208.16 70.01 C 208.15 71.34 208.15 72.67 208.15 74.00 L 206.27 74.00 C 206.20 70.67 206.02 67.33 206.39 64.01 Z" />
<path fill="#00aa7f" opacity="1.00" d=" M 224.61 69.73 C 226.08 67.53 226.93 64.40 229.81 63.69 C 230.01 67.12 229.98 70.56 229.91 74.00 L 227.99 74.00 C 228.01 71.97 227.98 69.94 227.99 67.91 C 226.95 69.61 225.71 71.15 224.46 72.70 C 223.32 71.09 222.38 69.36 221.27 67.73 C 221.27 69.82 221.32 71.91 221.31 74.00 L 219.49 74.00 C 219.44 70.76 219.30 67.52 219.55 64.28 C 222.38 63.24 223.10 68.03 224.61 69.73 Z" />
<path fill="#00aa7f" opacity="1.00" d=" M 234.81 67.02 C 236.11 65.95 237.23 64.49 238.92 64.02 C 242.28 63.28 245.73 66.73 244.97 70.09 C 244.55 71.80 243.10 72.92 241.82 74.00 L 238.06 74.00 C 235.38 72.64 234.60 69.82 234.81 67.02 M 238.34 66.41 C 234.80 68.38 238.25 74.07 241.67 71.63 C 245.03 69.63 241.53 64.19 238.34 66.41 Z" />
<path fill="#00aa7f" opacity="1.00" d=" M 250.00 63.57 C 253.19 64.93 251.36 69.24 252.02 71.96 C 253.09 71.94 254.16 71.96 255.24 72.04 C 255.49 69.50 255.52 66.95 255.77 64.42 C 256.22 64.28 257.12 64.00 257.57 63.87 C 257.36 67.26 258.53 71.44 255.61 74.00 L 252.10 74.00 C 251.37 73.36 250.64 72.71 249.93 72.05 C 249.92 69.22 249.91 66.39 250.00 63.57 Z" />
<path fill="#00aa7f" opacity="1.00" d=" M 282.98 66.03 C 284.32 62.83 288.12 63.97 290.13 65.83 C 288.29 66.45 286.35 66.12 284.47 66.14 C 285.82 67.70 287.85 68.32 289.41 69.61 C 290.81 71.00 289.21 72.59 288.71 74.00 L 284.69 74.00 C 284.13 73.58 283.01 72.73 282.46 72.31 C 284.34 71.39 286.48 72.03 288.49 71.94 C 287.20 69.35 282.41 69.48 282.98 66.03 Z" />
<path fill="#00aa7f" opacity="1.00" d=" M 293.86 74.00 C 295.35 70.63 295.88 66.83 297.98 63.75 C 301.42 65.66 301.19 70.68 302.71 74.00 L 301.07 74.00 C 300.53 73.23 299.99 72.45 299.47 71.67 C 298.65 71.75 297.84 71.82 297.03 71.88 C 296.70 72.41 296.04 73.47 295.71 74.00 L 293.86 74.00 M 298.25 67.22 C 297.20 67.73 296.60 69.78 297.99 70.28 C 300.15 71.01 300.04 67.17 298.25 67.22 Z" />
<path fill="#00aa7f" opacity="1.00" d=" M 310.12 64.04 C 310.52 64.06 311.32 64.11 311.72 64.14 C 313.26 67.29 314.19 70.67 315.27 73.99 C 313.54 73.84 312.67 72.00 311.04 71.76 C 309.47 71.46 308.91 73.21 307.90 74.00 L 306.41 74.00 C 307.68 70.69 308.49 67.20 310.12 64.04 M 310.25 69.91 C 311.81 71.14 312.67 68.40 311.38 67.59 C 309.99 66.47 309.18 69.16 310.25 69.91 Z" />
<path fill="#00aa7f" opacity="1.00" d=" M 262.85 64.00 C 265.34 64.05 268.43 63.79 270.08 66.11 C 272.16 68.47 270.84 72.04 268.49 73.69 C 267.63 73.18 266.78 72.67 265.94 72.15 C 270.97 71.92 269.17 64.84 264.79 65.89 C 264.77 67.59 264.62 69.29 264.52 70.99 C 265.01 71.74 265.98 73.24 266.47 73.99 L 262.86 73.99 C 262.83 70.66 262.83 67.33 262.85 64.00 Z" />
<path fill="#00aa7f" opacity="1.00" d=" M 319.92 63.93 C 323.04 63.87 327.23 64.29 328.00 68.01 L 328.00 71.18 C 326.24 71.22 325.32 72.96 324.16 74.00 L 319.93 74.00 C 319.92 70.64 319.91 67.28 319.92 63.93 M 321.81 65.88 C 321.80 67.97 321.80 70.05 321.81 72.13 C 323.67 72.25 326.42 71.43 326.02 69.03 C 326.36 66.72 323.63 65.84 321.81 65.88 Z" />
</g>
</svg>
