<?xml version="1.0" encoding="UTF-8" ?>
<!DOCTYPE svg PUBLIC "-//W3C//DTD SVG 1.1//EN" "http://www.w3.org/Graphics/SVG/1.1/DTD/svg11.dtd">
<svg width="1080pt" height="129pt" viewBox="0 0 1080 129" version="1.1" xmlns="http://www.w3.org/2000/svg">
<g id="#0055ffff">
<path fill="#0055ff" opacity="1.00" d=" M 296.64 0.67 C 297.96 1.32 298.50 2.40 298.26 3.88 C 298.22 45.59 298.26 87.29 298.24 129.00 L 296.57 129.00 C 296.61 86.22 296.47 43.44 296.64 0.67 Z" />
<path fill="#0055ff" opacity="1.00" d=" M 182.85 25.85 C 194.42 19.56 208.47 16.88 221.21 21.10 C 243.32 26.83 259.57 49.30 257.99 72.06 C 257.34 86.54 249.86 100.62 238.31 109.36 C 229.62 115.84 218.99 119.96 208.05 119.72 C 186.46 120.24 165.89 104.91 159.81 84.25 C 159.28 82.08 158.59 79.92 158.50 77.66 C 158.27 77.30 157.80 76.59 157.56 76.23 C 156.69 71.65 156.99 66.97 157.53 62.37 L 158.35 62.62 C 159.81 47.31 169.80 33.62 182.85 25.85 M 195.53 39.23 C 195.56 45.26 195.52 51.29 195.55 57.33 C 189.52 57.27 183.48 57.28 177.45 57.31 C 177.35 65.44 177.38 73.56 177.43 81.68 C 183.45 81.73 189.47 81.74 195.49 81.68 C 195.59 87.83 195.51 93.98 195.55 100.13 C 203.82 99.88 212.19 100.77 220.40 99.64 C 220.20 93.64 220.29 87.63 220.34 81.63 C 226.38 81.80 232.43 81.70 238.47 81.69 C 238.46 73.55 238.44 65.42 238.48 57.29 C 232.42 57.31 226.36 57.25 220.30 57.33 C 220.30 51.33 220.25 45.34 220.34 39.35 C 212.08 38.90 203.79 39.13 195.53 39.23 Z" />
<path fill="#0055ff" opacity="1.00" d=" M 653.40 36.04 C 652.91 31.73 657.48 28.78 661.41 29.63 C 663.46 31.17 666.09 33.06 665.54 36.01 C 665.64 38.55 663.16 39.95 661.53 41.44 C 657.88 42.21 653.50 40.12 653.40 36.04 Z" />
<path fill="#0055ff" opacity="1.00" d=" M 510.53 29.83 C 513.32 29.82 516.11 29.82 518.91 29.83 C 516.58 53.36 513.25 76.80 510.41 100.28 C 508.17 100.28 505.94 100.27 503.72 100.29 C 501.64 96.48 504.11 92.16 503.27 88.08 C 502.96 88.80 502.68 89.53 502.45 90.28 C 497.96 95.50 492.56 101.52 485.06 101.35 C 479.18 102.02 473.76 97.49 472.43 91.91 C 470.40 84.48 471.26 76.44 473.93 69.27 C 476.54 62.41 481.01 55.83 487.75 52.50 C 494.03 49.12 502.62 50.38 507.25 55.94 C 508.15 47.22 509.30 38.51 510.53 29.83 M 494.92 57.72 C 490.46 58.55 487.16 62.09 484.77 65.72 C 480.87 72.46 479.38 80.66 480.89 88.31 C 481.78 92.56 486.64 96.01 490.85 93.88 C 496.95 91.09 500.66 84.93 503.30 79.02 C 505.83 73.85 505.20 67.96 506.53 62.49 C 503.95 58.86 499.28 57.00 494.92 57.72 Z" />
<path fill="#0055ff" opacity="1.00" d=" M 531.29 31.12 C 534.97 27.69 541.66 30.98 541.32 35.97 C 541.04 40.15 536.58 42.42 532.76 41.56 C 531.62 40.49 530.49 39.40 529.37 38.31 C 529.29 35.84 528.84 32.66 531.29 31.12 Z" />
<path fill="#0055ff" opacity="1.00" d=" M 353.43 30.94 C 356.19 30.97 358.97 30.78 361.73 31.02 C 363.49 31.64 363.79 33.66 364.46 35.15 C 369.89 49.81 376.04 64.20 381.14 78.97 C 383.09 76.84 384.28 74.18 385.89 71.80 C 393.78 59.15 401.75 46.55 409.61 33.88 C 410.29 32.78 411.16 31.83 412.01 30.86 C 414.98 30.91 417.95 30.89 420.93 30.89 C 418.43 54.09 415.36 77.23 412.46 100.39 C 409.73 100.39 407.00 100.39 404.28 100.39 C 406.16 82.22 408.70 64.11 410.83 45.96 C 402.47 59.53 393.91 72.97 385.58 86.55 C 384.73 88.01 383.62 89.29 382.39 90.44 C 380.92 90.42 379.46 90.41 378.00 90.42 C 377.00 89.33 376.06 88.16 375.61 86.73 C 370.41 72.92 364.86 59.23 359.72 45.41 C 357.91 63.77 355.14 82.04 353.31 100.40 C 350.42 100.46 347.53 100.45 344.65 100.38 C 347.99 77.31 350.23 54.05 353.43 30.94 Z" />
<path fill="#0055ff" opacity="1.00" d=" M 589.66 30.77 C 598.80 30.74 607.94 30.72 617.07 30.74 C 626.17 31.25 634.96 36.77 638.89 45.09 C 643.95 55.72 643.12 68.51 638.52 79.15 C 633.45 91.26 621.08 99.80 607.97 100.21 C 599.09 100.20 590.21 100.22 581.34 100.21 C 581.49 98.13 581.63 96.04 581.88 93.97 C 582.49 91.33 582.61 88.63 582.86 85.95 C 585.28 67.59 587.41 49.16 589.66 30.77 M 598.47 37.55 C 596.02 56.14 593.88 74.76 591.58 93.36 C 601.09 93.16 611.64 94.97 620.01 89.29 C 629.13 83.13 632.37 71.51 632.47 61.02 C 632.53 53.05 630.02 43.99 622.59 39.87 C 615.15 36.00 606.49 37.94 598.47 37.55 Z" />
<path fill="#0055ff" opacity="1.00" d=" M 714.14 61.29 C 718.60 54.96 725.91 49.88 733.94 50.47 C 739.38 49.97 744.46 52.86 747.83 56.95 C 746.94 58.09 746.08 59.24 745.21 60.39 C 744.50 60.75 743.80 61.12 743.12 61.49 C 739.66 58.89 735.44 56.20 730.92 57.63 C 722.94 59.85 718.66 68.22 717.53 75.88 C 717.24 80.73 716.63 86.22 719.75 90.35 C 722.51 93.99 727.80 95.09 731.98 93.50 C 735.23 92.76 737.55 90.30 740.16 88.43 C 742.76 87.13 744.29 89.83 745.55 91.59 C 741.71 95.53 737.47 99.58 731.86 100.68 C 726.63 101.59 720.82 101.62 716.20 98.65 C 712.13 96.24 709.89 91.75 708.80 87.31 C 707.21 78.36 708.97 68.81 714.14 61.29 Z" />
<path fill="#0055ff" opacity="1.00" d=" M 759.34 58.40 C 763.69 53.39 770.20 49.93 776.96 50.43 C 784.72 49.86 791.98 55.58 794.02 62.95 C 797.31 75.21 792.99 89.74 782.42 97.17 C 775.16 102.38 764.04 102.89 757.25 96.61 C 754.47 94.11 752.90 90.64 751.79 87.13 C 750.12 77.09 752.22 65.98 759.34 58.40 M 772.55 57.77 C 764.99 60.27 761.43 68.53 760.48 75.86 C 760.06 81.13 759.64 87.31 763.54 91.48 C 767.40 95.05 773.63 94.81 777.65 91.62 C 783.25 87.25 785.87 79.93 785.83 72.98 C 785.81 69.29 786.15 65.33 784.27 62.00 C 782.12 57.94 776.77 56.29 772.55 57.77 Z" />
<path fill="#0055ff" opacity="1.00" d=" M 847.21 69.90 C 849.94 60.94 856.87 52.80 866.25 50.66 C 871.87 49.85 878.50 49.85 882.69 54.31 C 885.00 56.22 885.67 59.16 886.18 61.96 C 885.65 65.70 884.25 69.56 880.84 71.60 C 873.00 76.62 863.41 77.54 854.38 78.65 C 854.23 83.19 854.49 88.54 858.28 91.67 C 862.06 94.68 867.46 94.49 871.77 92.77 C 874.90 91.65 877.13 89.03 880.02 87.46 C 882.43 86.98 883.44 89.69 884.87 91.08 C 879.56 96.91 872.17 101.62 863.99 101.07 C 857.76 101.49 851.35 98.27 848.29 92.77 C 844.39 85.83 844.93 77.27 847.21 69.90 M 863.53 58.59 C 858.97 61.92 856.49 67.29 855.26 72.67 C 861.88 71.88 868.80 70.99 874.68 67.62 C 878.32 65.76 879.06 59.76 875.44 57.51 C 871.75 55.15 866.93 56.25 863.53 58.59 Z" />
<path fill="#0055ff" opacity="1.00" d=" M 429.68 63.58 C 433.89 56.01 442.20 50.27 451.07 50.75 C 456.03 50.46 461.23 52.71 463.96 56.95 C 466.42 60.64 465.81 65.82 463.15 69.25 C 460.91 72.06 457.66 73.84 454.32 75.02 C 448.71 76.95 442.86 78.26 436.93 78.59 C 435.75 78.66 434.64 78.99 433.61 79.59 C 433.87 84.05 434.15 89.28 437.94 92.30 C 442.56 95.85 449.27 94.87 453.93 91.90 C 456.15 90.54 457.98 87.90 460.85 88.13 C 462.57 88.68 463.37 90.42 464.03 91.94 C 460.23 95.48 456.10 99.00 451.00 100.44 C 447.10 101.86 442.87 101.27 438.81 101.26 C 433.38 99.77 428.45 96.03 426.54 90.60 C 423.25 81.75 425.17 71.65 429.68 63.58 M 447.66 57.00 C 440.45 58.67 436.16 66.00 434.94 72.84 C 441.01 72.80 447.10 71.44 452.65 69.00 C 455.68 67.71 458.19 64.40 457.18 61.00 C 455.94 57.19 451.18 55.84 447.66 57.00 Z" />
<path fill="#0055ff" opacity="1.00" d=" M 528.83 51.80 C 532.08 51.65 535.33 51.72 538.59 51.78 C 537.20 53.08 537.63 55.12 537.39 56.83 C 535.66 71.29 533.74 85.75 532.20 100.23 C 529.26 100.27 526.32 100.27 523.38 100.27 C 523.55 95.46 524.64 90.76 524.94 85.97 C 526.29 74.60 528.14 63.24 528.83 51.80 Z" />
<path fill="#0055ff" opacity="1.00" d=" M 653.48 51.59 C 656.46 51.58 659.45 51.59 662.44 51.64 C 660.13 67.77 658.55 84.00 656.40 100.16 C 653.42 100.16 650.44 100.16 647.46 100.16 C 649.52 83.98 651.28 67.75 653.48 51.59 Z" />
<path fill="#0055ff" opacity="1.00" d=" M 684.96 50.74 C 691.61 49.83 698.93 50.66 703.80 55.77 C 702.84 57.04 701.93 58.32 701.05 59.64 C 697.89 60.32 695.66 57.45 692.76 56.82 C 688.13 55.42 681.84 57.11 680.11 62.06 C 679.19 64.04 680.02 66.14 680.90 67.97 C 685.81 71.54 692.32 72.04 696.94 76.07 C 698.77 77.49 699.52 79.76 700.33 81.84 C 700.52 84.64 699.98 87.39 699.25 90.08 C 694.06 102.58 675.27 105.08 666.37 95.31 C 667.63 93.41 668.96 91.50 670.94 90.28 C 673.80 92.15 676.49 94.64 680.02 95.10 C 684.94 95.92 691.16 93.30 692.11 87.95 C 693.10 85.03 691.29 82.01 688.70 80.70 C 683.53 77.79 676.60 77.45 673.10 72.06 C 669.98 66.39 672.40 58.90 677.14 54.89 C 679.30 52.76 682.25 51.91 684.96 50.74 Z" />
<path fill="#0055ff" opacity="1.00" d=" M 800.28 51.67 C 803.32 51.40 806.42 51.19 809.48 51.57 C 811.02 53.33 811.00 55.87 811.65 58.02 C 813.92 68.92 817.26 79.61 818.65 90.67 C 822.19 80.38 827.82 70.98 832.28 61.08 C 833.87 58.02 835.05 54.72 837.02 51.87 C 839.75 50.77 842.95 51.57 845.87 51.44 C 837.61 67.64 829.43 83.87 821.16 100.06 C 818.63 100.05 816.11 100.05 813.60 100.06 C 809.44 84.32 805.13 68.60 801.27 52.79 C 801.02 52.51 800.52 51.95 800.28 51.67 Z" />
<path fill="#0055ff" opacity="1.00" d=" M 897.79 51.46 C 900.28 51.19 902.81 51.19 905.27 51.78 C 905.61 55.78 905.22 59.81 905.41 63.82 C 907.68 58.35 911.87 52.81 917.91 51.36 C 920.07 51.34 923.15 50.64 924.49 52.85 C 922.97 54.74 923.43 57.35 923.19 59.61 C 920.31 60.22 917.27 58.63 914.54 60.13 C 908.52 62.97 906.07 69.75 904.10 75.63 C 902.82 80.94 902.80 86.47 901.80 91.83 C 901.47 94.45 901.31 97.09 901.23 99.73 C 898.22 100.16 895.18 100.03 892.17 99.99 C 893.76 83.78 896.29 67.67 897.79 51.46 Z" />
<path fill="#0055ff" opacity="1.00" d=" M 548.56 67.65 C 556.02 67.58 563.47 67.61 570.93 67.61 C 570.76 69.85 570.57 72.09 570.37 74.33 C 562.94 74.37 555.50 74.37 548.07 74.36 C 548.21 72.12 548.37 69.88 548.56 67.65 Z" />
</g>
</svg>
