<?xml version="1.0" encoding="utf-8"?>
<!-- Generator: Adobe Illustrator 19.2.0, SVG Export Plug-In . SVG Version: 6.00 Build 0)  -->
<svg version="1.1" id="Layer_1" xmlns="http://www.w3.org/2000/svg" xmlns:xlink="http://www.w3.org/1999/xlink" x="0px" y="0px"
	 viewBox="0 0 650 426" style="enable-background:new 0 0 650 426;" xml:space="preserve">
<style type="text/css">
	.st0{fill:#FFFFFF;}
</style>
<g>
	<path class="st0" d="M219.4,194.3c-2.2-2.7-5.3-4.9-9.1-6.6c-0.3-7.3-2.6-13.5-6.5-17.7c-6.1-6.6-15-8.7-21.3-9.4l-0.2,0l-0.2,0
		c-1.3,0.3-2.4,0.8-3.5,1.3c-1,0.5-1.9,0.9-2.9,1.1c-0.8-0.3-1.6-0.7-2.5-1.1c-1-0.5-2-1-3.2-1.3l-0.3-0.1l-0.3,0
		c-7,0.5-16.6,2.6-22.5,10.1c-3.6,4.2-5.7,10-5.9,16.3l0,0.2l0,0.2c0,0.1,0,0.1,0,0.1c-0.1,0.2-0.8,0.4-1.1,0.6
		c-0.4,0.2-0.9,0.4-1.3,0.6c-6.9,3.5-12,10.9-13.3,19.2c-1,6.7-1.2,16.4,3.9,24.5c2.3,3.9,6.2,7.3,11.4,9.9c0.1,6.4,1,14.2,6.1,20
		c3,3.6,7.2,6.4,12.4,8.3l0.3,0.1c0.9,0.1,1.9,0.4,3,0.7c3.2,0.9,6.7,1.9,10-0.4c0.2-0.1,0.5-0.3,0.7-0.4c0.9-0.5,1.8-1,2.6-1
		c0.7,0.2,1.4,0.7,2.1,1.2c1.2,0.8,2.7,1.8,4.5,1.8c0.3,0,0.5,0,0.8-0.1c5.5-0.5,15.7-2.6,21.7-10.7c3.7-4.8,5.5-11.3,5.3-19.2
		c1.8-1,3.2-1.8,4.6-2.6c6.7-4.3,11-12.3,11.5-21.4C226.7,211.2,225.9,201.2,219.4,194.3z M198.6,227.7c0.8-2.2-0.3-4.4-2-5.6
		c-2-1.4-5.1-1.5-6.8,1c-1.3,1.7-1.4,3.9-0.1,5.7c1.2,1.7,3.4,2.7,5.5,2.5c2.4,2.6,4.8,5.1,7.2,7.6c1,1,2,2,2.9,3
		c0.1,8.6-1.8,14.7-6,18.5c-2.4,2.5-5.7,4.3-10.2,5.7c0.1-1.5,0-3,0-4.4l0-0.5c2.1-1.3,2.8-3.9,2.3-5.9c-0.5-2.2-2.5-4.1-5.5-3.6
		c-2.2,0.4-3.7,2-4,4.2c-0.3,2.1,0.7,4.2,2.4,5.4c0,0.9,0,1.8,0,2.7c0,1.2,0,2.4-0.1,3.6c-1.4,0.1-2.7-0.6-4.5-1.7
		c-0.6-0.4-1.2-0.7-1.8-1c0-2.8,0-5.5,0-8.3c0-4.4,0-8.9,0.1-13.4c2.3,0.1,4.7,0.2,7,0.2c1.4,0,2.8,0,4.3,0.1
		c0.2,0.1,0.5,0.4,0.7,0.7c0.6,0.7,1.5,1.8,3.1,1.8c0,0,0,0,0,0c2,0.4,4.1-0.7,5.1-2.7c1.1-2.2,0.6-4.5-1.1-5.9
		c-1.2-1.1-2.7-1.5-4.3-1.2c-1.4,0.3-2.7,1.2-3.5,2.4c-2.6,0-5.2-0.1-7.8-0.1c-1.2,0-2.3,0-3.5,0c0-2.6,0-5.2,0-7.8
		c0-4.4,0-9,0.1-13.5l1.5,0c1,1.6,2.9,2.6,5,2.5c2.4-0.2,4.2-1.9,4.5-4.1c0.5-2.6-1-4.9-3.6-5.6c-2-0.5-4.6,0.1-5.8,2.2
		c-1,0-1.9,0-2.9,0c-2.2-2-4.2-4.1-6-5.8l-0.9-0.9l-1,0.7c-0.6,0.4-1.2,1-1.7,1.6l-0.8,1.1l1,0.9c0.7,0.7,1.4,1.4,2.1,2.1
		c0.9,0.9,1.8,1.8,2.8,2.8c-1.2,1.2-2.5,2.4-3.8,3.6c-1.5,1.3-3,2.7-4.4,4.2l-0.5,0.5l0.1,0.7c0,0.5,0.1,1.4,0.1,1.9l0.1,2.3
		l2.1-1.1c2.4-1.3,4.2-3.2,6-5c0.4-0.4,0.8-0.8,1.2-1.2c-0.1,3.5-0.1,7,0,10.5l0,0.8c-4.1,4.4-8.5,8.7-12.7,12.9
		c-1.9,1.9-3.8,3.7-5.7,5.6l-0.4,0.4l0,2.3l2.6,2.1l1-1c0.7-0.8,1.5-1.5,2.2-2.2c0.9-0.9,1.9-1.8,2.8-2.8c0.6,0.5,1.1,1.1,1.6,1.7
		c1.3,1.4,2.7,3,4.8,3.6l1.5,0.5l0.4-1.6c0.1-0.4,0.3-1.2,0.4-1.6l0.2-0.8l-0.6-0.6c-1.3-1.3-2.7-2.6-4.1-3.9
		c-0.3-0.2-0.5-0.5-0.7-0.7c1.5-1.6,3.1-3.2,4.6-4.7c0.7-0.7,1.5-1.5,2.2-2.2c-0.1,4.5-0.1,9.1-0.1,13.5c0,4.2,0,8.6-0.1,12.9
		c-0.7,0.3-1.4,0.7-2.1,1.1c-0.7,0.4-1.4,0.8-2.1,1.1c-2.4,0-4.8-0.6-7.4-1.4c0.5-0.5,1.1-1,1.6-1.6c1.4-1.3,3-2.7,3.7-4.8l0.6-1.7
		l-3.7-0.6l-0.5,0.4c-1.8,1.5-3.5,3.2-5.1,4.8c-0.5,0.5-1,1-1.5,1.5c-3.2-2-7-5.1-8.8-9.6c-1.8-4.2-2-8.9-2-12.7
		c1.7-1.7,3.4-3.4,5.1-5c3.5-3.3,7.1-6.7,10.3-10.5l0.8-0.9l-1.8-2.6l-1.1,0.4c-2.4,0.9-4.1,2.7-5.8,4.5c-0.8,0.8-1.5,1.6-2.3,2.3
		c-0.2-0.3-0.5-0.5-0.7-0.8c-2-2.1-4.2-4.4-6.6-6.2l-1.3-1l-1.1,1.8c-0.3,0.4-0.6,0.9-0.7,1.2l-0.7,1.1l1,0.8c2,1.7,4.5,3.9,6.6,6.4
		c-1.3,1.2-2.6,2.4-3.8,3.6c-0.3,0.3-0.5,0.5-0.8,0.8c-5.5-2.6-9.7-7.2-11.5-12.4c2.1-2,4.2-4.1,6.2-6.1c2-2,4.1-4,6.1-6
		c0.6,0.6,1.2,1.3,1.9,1.9c1.7,1.8,3.5,3.8,5.9,5l1.2,0.6l2.1-2.9l-0.7-0.9c-1.4-1.8-3-3.3-4.6-4.8c-0.8-0.8-1.5-1.5-2.3-2.2
		c1.4-1.5,2.9-2.9,4.3-4.3c1.3-1.3,2.7-2.6,4-4l0.5-0.5l-0.6-4.9l-2,1.3c-0.2,0.1-0.4,0.3-0.6,0.4l0.2-2.6l-0.3-0.4
		c-1.3-1.7-2.8-3.2-4.3-4.6c-0.8-0.7-1.5-1.4-2.3-2.2c0.1-4.5,1.1-10.6,5.1-14.9c2.2-2.6,5.5-4.6,10.1-6.3c0,0.8,0,1.7,0,2.5
		c0,3.3,0,6.6-0.1,9.9c-0.7,1.2-1.7,2.2-2.7,3.4c-0.9,1-1.9,2.1-2.7,3.4l-0.4,0.6l1.6,4.4l1.6-1.4c1.6-1.4,2.9-3,4.2-4.5
		c0.3-0.4,0.6-0.7,0.9-1.1c0.3,0.3,0.5,0.7,0.8,1.1c1.3,1.7,2.6,3.4,4.5,4.6l1.7,1.1l1.1-4.2l-0.4-0.6c-1.1-1.5-2.2-2.9-3.4-4.3
		c-0.7-0.8-1.3-1.6-2-2.4c0.1-5.3,0.1-9.8,0.1-13.8c1.2-0.2,2.3-0.3,3.3-0.3c0,0,0,0,0,0c0.6,0.2,1.2,0.5,1.8,0.8
		c0.7,0.4,1.5,0.7,2.3,1c0,3.2,0,6.4,0,9.7c0,4.1,0,8.2,0,12.4c-1.5,1.5-3,2.9-4.4,4.3c-2.7,2.6-5.5,5.2-8.1,8.1l-0.6,0.7l1,3.1
		l2.6,0l0.4-0.4c4.5-4.2,8.1-7.8,11.4-11.1c1.7,1.6,3.3,3.3,4.9,5c1.2,1.3,2.5,2.7,3.8,4c0,0.2,0,0.4,0,0.6c0.1,1.5,0.1,3.7,2.2,4.8
		c1.4,1.1,3.5,1.2,5.2,0.2c1.8-1,2.7-2.8,2.5-4.7c0-1.5-0.8-2.9-2.1-3.7c-1.3-0.8-2.8-1.1-4.2-0.8c-0.9-1-1.9-1.9-2.8-2.9
		c-2.3-2.3-4.7-4.7-6.7-7.3c0-3.9,0-8,0-11.8c0-3.3,0-6.7,0-10c0.6-0.2,1.2-0.5,1.7-0.8c0.9-0.4,1.8-0.9,2.7-1.1
		c1.2,0.2,2.4,0.4,3.7,0.7c0.2,0,0.3,0.1,0.5,0.1c0,1.4,0,2.7,0,4.1l0,1.8c-1.2,0.8-2,2-2.4,3.3c-0.3,1.2-0.2,2.4,0.4,3.5
		c0.7,1.8,2.6,2.9,4.7,2.8c2.1-0.1,3.8-1.3,4.4-3.2c1.4-2.7-0.6-5-2-6.3c-0.1-1.2-0.1-2.4-0.1-3.7c0-0.3,0-0.6,0-0.9
		c5.2,2.1,8.9,5,10.9,8.8c1.9,3.2,2.5,7,2.8,10.4c-2.9,0-5.8,0-8.6,0c-1,0-2,0-3,0c-0.1-0.2-0.3-0.3-0.4-0.5c-0.7-1-1.9-2.4-3.9-2.2
		c-1.7-0.2-3.3,0.6-4.4,2.2c-1,1.6-1.1,3.5-0.3,5c0.7,1.8,2.4,2.8,4.5,2.8c1.8,0,3.4-1,4.3-2.4c5.3,0,9.6,0,13.6,0.1
		c4.9,1.5,9.1,5.3,11.7,10.5c-2.3-0.1-4.6-0.1-6.8-0.1c-1.3,0-2.6,0-3.8,0c-1.2-2.1-3.8-2.8-5.9-2.2c-2.6,0.7-4,2.9-3.6,5.5
		c0.3,2.3,2,3.9,4.4,4.1c2.1,0.2,4-0.7,5-2.4c1,0,2.1,0,3.1,0c3.1,0,6.2,0,9.3,0c0.8,3.7,1,7.5,0.7,11.5l-7.7,0
		c-1.1-2-3.4-2.7-5.4-2.4c-2.5,0.4-4.2,2.4-4,4.7c-0.1,2.5,1.4,4.4,3.9,4.9c2,0.4,4.3-0.3,5.5-2.3c1.3,0,2.6,0,3.9,0c1,0,2,0,3,0
		c-1.8,6.3-6.3,11.5-12.2,14.2c-2-2.1-4-4.2-6-6.3C201,230.3,199.8,229,198.6,227.7z M185.6,255.6l0.8,1.3c0,0,0,0,0,0L185.6,255.6
		L185.6,255.6z M193.5,240.7L193.5,240.7c0.1,0,0.1,0,0.1,0L193.5,240.7C193.6,240.8,193.6,240.8,193.5,240.7z M144.8,193.9
		c1.7,1.9,3.4,3.8,6,4.5l0.9,0.2c0,0-0.1,0-0.1,0.1l-0.2,0.2c-3.1,3-6.2,6-9.2,9c-4,3.9-8.1,8-12.3,11.8c-0.7-6.3-0.3-14.2,4-20.5
		c1.8-2.9,4.8-5.3,8.9-7.3C143.5,192.5,144.2,193.2,144.8,193.9z M189,204.4L189,204.4L189,204.4C189,204.4,189,204.4,189,204.4z
		 M189,204.4L189,204.4c0.1,0,0.1,0,0.1,0L189,204.4C189.1,204.4,189,204.4,189,204.4z M189.3,189.3
		C189.3,189.3,189.3,189.3,189.3,189.3C189.2,189.3,189.2,189.3,189.3,189.3c-0.1,0-0.1-0.1-0.1-0.1
		C189.2,189.2,189.3,189.2,189.3,189.3z M203.9,204.7C203.9,204.7,203.9,204.7,203.9,204.7c-0.1,0-0.2,0-0.2,0c0,0,0,0,0-0.1
		c0,0,0.1,0,0.1,0C203.8,204.7,203.9,204.8,203.9,204.7z M209.1,221.3L209.1,221.3C209,221.3,209,221.3,209.1,221.3
		C209,221.3,209,221.3,209.1,221.3z"/>
	<g>
		<path class="st0" d="M254.7,220.9l-0.1-1.6c-0.2-3.7,0.9-8.8,4.9-11.1c3.4-2,7.4-1.9,11.6-1.7c1.6,0.1,3.3,0.1,5,0l1.4-0.1l0-1.4
			c0-2,0-4,0-6l0-1.5l-1.5,0c-1.4,0-2.8,0-4.2,0c-2.5,0-5-0.1-7.6,0c-4.2,0.1-8.4,1.8-13.2,5.4l-0.1,0.1c-5.7,4.8-6.4,12.4-6.3,16.5
			l0,1.5L254.7,220.9z M252.8,205.2c4.3-3.2,7.9-4.7,11.4-4.8c2.5,0,5,0,7.5,0c0.9,0,1.9,0,2.8,0c0,1,0,2,0,3c-1.1,0-2.2,0-3.4-0.1
			c-4.4-0.1-9-0.3-13.2,2.1c-4.6,2.6-6.3,7.8-6.4,12.3l-3.9,0C247.8,212.5,249.7,207.9,252.8,205.2z"/>
		<path class="st0" d="M380.6,197.9c-4,0-8.1,0-12.1-0.1l-1.5,0l-0.1,1.5c-0.1,2-0.2,4-0.2,5.9l0,1.4l1.4,0.1
			c5.2,0.3,10.5,0.3,15.6,0.3c4.1,0,8.2,0,12.4,0.1l1.3,0l0.2-1.3c0.3-1.5,0.3-3,0.3-4.4c0-0.5,0-1.1,0-1.6l0.1-1.5l-1.5-0.1
			C391.2,197.9,385.8,197.9,380.6,197.9z M395,201.3c0,0.9,0,1.8-0.1,2.7c-3.7-0.1-7.5-0.1-11.1-0.1c-4.6,0-9.3,0-14-0.2
			c0-0.9,0.1-1.9,0.1-2.9c3.6,0.1,7.2,0.1,10.7,0.1c4.7,0,9.6,0,14.4,0.2C395,201.2,395,201.3,395,201.3z"/>
		<path class="st0" d="M437.3,231.3l0.1-1.5l-1.5-0.1c-4-0.1-8.1-0.1-12.1-0.1c-2.1,0-4.2,0-6.3,0l0-4.7c0-8.3,0.1-16.9,0.1-25.3
			l0-1.5l-1.8,0c-2.1,0-4.1,0-6.2,0l-1.5,0l0,1.5c-0.1,5.8-0.1,11.6-0.1,17.4c0,6.6,0,13.4-0.1,20.1l0,1.5l1.5,0c2.5,0,5,0,7.5,0.1
			c2.5,0,5,0.1,7.5,0.1c3.8,0,7.6,0,11.4-0.2l1.5-0.1l-0.1-1.5C437.2,235.2,437.2,233.4,437.3,231.3z M417,235.6c-2,0-4-0.1-6-0.1
			c0.1-6.2,0.1-12.5,0.1-18.6c0-5.3,0-10.6,0.1-15.9c1.1,0,2.3,0,3.5,0c0,7.9-0.1,16-0.1,23.8l0,7.7l1.5,0c2.6,0,5.2,0,7.8,0
			c3.4,0,7,0,10.5,0.1c0,1,0,1.9,0,2.8C428.5,235.8,422.7,235.7,417,235.6z"/>
		<path class="st0" d="M474.1,214.2c-0.7-1.8-1.3-3.7-2-5.5c-1.1-3.1-2.2-6.4-3.6-9.5l-0.4-1l-1.7,0.1c-2,0.1-3.9,0.2-5.7-0.2
			l-2-0.4l0.2,2c0.3,2.3,1.1,4.4,1.8,6.4c0.4,1.1,0.8,2.2,1.2,3.4c2.1,6.5,4.6,13,6.9,19.3c1.1,3,2.2,5.9,3.3,8.9l0.3,0.9l1,0.1
			c1.7,0.1,3.4,0.2,5.3,0.2c0.7,0,1.4,0,2.1,0l2.1,0l-1.2-3.3C479.3,228.6,476.7,221.3,474.1,214.2z M474.7,235.8c-1-2.7-2-5.4-3-8
			c-2.3-6.3-4.8-12.7-6.9-19.1c-0.4-1.2-0.8-2.4-1.2-3.5c-0.5-1.3-1-2.5-1.3-3.8c1.3,0.1,2.6,0,3.9,0c1.1,2.7,2.1,5.6,3.1,8.3
			c0.7,1.9,1.3,3.7,2,5.6c2.5,6.9,5,13.9,7.5,20.7C477.4,235.9,476,235.9,474.7,235.8z"/>
		<path class="st0" d="M525.2,198.3l-2.9,0.2c-2.3,0.1-4.7,0.1-7.1,0.1l-0.8,0l-0.5,0.7c-1.3,2-2.6,4.1-4,6.1
			c-2.1,3.3-4.3,6.6-6.5,9.9c-3.3-5.2-6.6-10.5-9.9-15.6l-0.8-1.2l-0.8,0c-1.7,0-3.5,0-5.2,0l-3.2,0l0,1.5
			c-0.1,3.7-0.1,7.4-0.1,10.9c0,2.6,0,5.1,0,7.7c0,2.9,0,5.8,0,8.7c0,3.4,0,6.8-0.1,10.2l0,1.5l1.5,0c2.2,0,4.5,0,6.7,0.1l1.5,0
			l0-1.5c0-4.5,0-9.2,0-13.6c0-2.7,0-5.4,0-8.2c2.1,3.1,4.2,6.3,6.2,9.4c1,1.5,2,3,3,4.5l1.2,1.9l1.3-1.8c6.3-9.1,12.7-18.8,19-28.8
			L525.2,198.3z M503.4,226c-0.6-0.9-1.2-1.8-1.7-2.7c-2.9-4.4-5.9-9-9-13.4l-2.7-3.8l0,4.7c0,4.3,0,8.7,0,12.9c0,4,0,8.1,0,12.1
			c-1.2,0-2.4,0-3.7,0c0-2.9,0-5.8,0-8.7c0-2.9,0-5.8,0-8.6c0-2.6,0-5.1,0-7.7c0-3.1,0-6.3,0.1-9.4l0.3,0c1.5,0,2.9,0,4.4,0
			c3.6,5.7,7.4,11.5,11,17.3l1.2,1.9l1.3-1.9c2.7-3.9,5.3-8,7.9-11.9c1.2-1.8,2.3-3.6,3.5-5.4c1.2,0,2.4,0,3.6,0
			C514.2,210,508.8,218.2,503.4,226z"/>
		<path class="st0" d="M317.2,197.6l-1.6,0c-4.2,0-8.5,0-12.6,0c-5.1,0-10.4-0.1-15.6,0l-1.5,0l0,1.5c0,2,0,3.9,0,5.8l-0.1,1.5
			l1.5,0.1c5.4,0.2,10.8,0.2,16.1,0.2c4,0,8.1,0,12.1,0.1l1.6,0l0-1.6c0-2.1,0-4.1,0-6L317.2,197.6z M314.1,203.7
			c-3.6-0.1-7.2-0.1-10.7-0.1c-4.8,0-9.6,0-14.5-0.1c0-1,0-1.9,0-2.9c4.7,0,9.4,0,14,0c3.6,0,7.4,0,11.1,0
			C314.1,201.6,314.1,202.6,314.1,203.7z"/>
		<path class="st0" d="M337.2,228.6l-0.7-3.2c-1.7-8.5-3.6-17.2-5.8-26.6l-0.3-1.2l-1.2,0c-1.8,0-3.9,0-6.1-0.1l-1.9-0.1l1,4.7
			c0.8,4.3,1.7,8.5,2.6,12.8c1.4,7.1,2.9,14.5,4.3,21.8l0.2,1.2l1.2,0.1c1.8,0.1,3.6,0.1,5.5,0.1c0.4,0,0.9,0,1.3,0l1.9,0l-0.4-1.8
			C338.3,233.8,337.8,231.2,337.2,228.6z M331.9,235.2c-1.3-6.9-2.7-13.9-4.1-20.7c-0.9-4.3-1.7-8.5-2.5-12.8l-0.2-1
			c1.1,0,2.1,0,3,0c2,8.9,3.8,17.2,5.5,25.4l0.7,3.2c0.4,2,0.8,4,1.3,6.1C334.3,235.3,333.1,235.2,331.9,235.2z"/>
		<path class="st0" d="M349.7,222.2c-1.9-7.5-3.8-15.3-5.9-22.9l-1.2-4.5l-1.6,4.4c-1.9,5.1-3.4,10.4-4.8,15.3l-0.1,0.2l0,0.3
			c0.1,2,0.6,4,1,5.9c0.4,1.7,0.8,3.3,0.9,5l0.6,6.7l2.3-6.4c0,0,0-0.1,0.1-0.1c0.2,0.8,0.4,1.6,0.6,2.5c0.6,2.5,1.1,4.9,1.7,7.4
			l0.2,0.7c0.1,0.3,0.2,0.5,0.3,0.7l0.4,1l1,0c0.5,0,1,0,1.6,0c0.8,0,1.7,0,2.5,0c0.8,0,1.7,0,2.5,0l1.9,0l-0.5-1.9
			C352,231.7,350.9,226.9,349.7,222.2z M349.3,235.3c-1,0-2,0-3,0c0,0,0-0.1,0-0.1c-0.6-2.4-1.1-4.9-1.7-7.3
			c-0.6-2.5-1.1-4.9-1.7-7.4l-1.1-4.8l-1.6,4.4c-0.4-1.7-0.8-3.4-0.9-5.1c0.9-3.3,2-6.8,3.1-10.2c1.6,6.1,3.1,12.2,4.6,18.1
			c1,4.1,2,8.2,3.1,12.4C349.7,235.3,349.5,235.3,349.3,235.3z"/>
		<path class="st0" d="M355.1,197.7l-1.3-0.1l-0.3,1.2c-0.6,2.1-1.2,4.2-1.8,6.3c-0.9,3.1-1.8,6.3-2.7,9.4l-0.1,0.4l0.1,0.4
			c0.2,0.9,0.4,1.7,0.6,2.6c0.6,2.9,1.3,5.9,2.6,8.7l1.8,3.7l1-4c1.5-6.4,3.3-12.8,5.1-19.1c0.7-2.5,1.4-4.9,2.1-7.4l0.6-2l-2.1,0.1
			C358.6,197.9,356.8,197.9,355.1,197.7z M357.3,206.3c-1.3,4.7-2.7,9.5-3.9,14.4c-0.3-1.1-0.5-2.3-0.8-3.5
			c-0.2-0.8-0.3-1.6-0.5-2.3c0.8-3,1.7-6,2.5-9c0.5-1.7,1-3.4,1.5-5.1c0.9,0.1,1.8,0.1,2.8,0.1C358.3,202.7,357.8,204.5,357.3,206.3
			z"/>
		<path class="st0" d="M460.2,213.5c-0.7-1.9-1.4-3.6-1.9-5.5l-1-4.1l-1.8,3.8c-2.5,5.2-4.7,10.7-6.8,16c-1.7,4.3-3.5,8.7-5.4,13
			l-1,2.2l2.4,0c0.8,0,1.5,0,2.3,0c1.6,0,3.3,0,5.1-0.2l0.9-0.1l0.3-0.9c1.6-4.1,3.3-8.2,5-12.2c1.1-2.5,2.1-5.1,3.2-7.6l0.2-0.5
			l-0.2-0.5C461.1,215.7,460.6,214.6,460.2,213.5z M455.5,224.3c-1.6,3.7-3.2,7.5-4.7,11.4c-1.3,0.1-2.5,0.1-3.8,0.1
			c1.6-3.6,3.1-7.4,4.5-11c1.6-4.1,3.3-8.2,5.1-12.3c0.3,0.7,0.5,1.4,0.8,2.1c0.3,0.9,0.7,1.8,1,2.7
			C457.5,219.6,456.5,222,455.5,224.3z"/>
		<path class="st0" d="M523.7,226.9c0-5.5,0.1-11.1,0-16.7l-0.1-4.2l-2.6,3.2c-2.6,3.3-4.9,6.5-6.7,9.8l-0.2,0.3l0,0.4
			c-0.1,2.9-0.1,5.9-0.1,8.7c0,2.9,0,6-0.1,8.9l0,1.5l1.5,0c1.7,0.1,3.4,0.1,5.1,0.1c0.6,0,1.1,0,1.7,0l1.5,0l0-1.5
			C523.6,234,523.7,230.5,523.7,226.9z M520.7,226.9c0,3.1,0,6.1,0,9.2c-1.2,0-2.4,0-3.7,0c0-2.5,0-5.1,0-7.5c0-2.7,0-5.5,0.1-8.3
			c1.1-1.9,2.3-3.7,3.6-5.6C520.7,218.7,520.7,222.9,520.7,226.9z"/>
		<path class="st0" d="M285.9,222l1.5,0c2.7,0,5.3,0,8,0.1c2.2,0,4.5,0,6.8,0.1c3.6,0,7.1,0,10.7-0.1l1.5,0l-0.1-1.5
			c-0.1-1.8-0.1-3.6,0-5.6l0.1-1.5l-1.5-0.1c-5.7-0.2-11.5-0.2-17.1-0.2c-2.8,0-5.6,0-8.3,0l-1.5,0l0,1.5c0,2,0,4,0,5.9L285.9,222z
			 M288.9,216.1c2.3,0,4.6,0,6.9,0c5.1,0,10.3,0,15.5,0.1c0,1,0,1.9,0,2.9c-5.3,0.1-10.7,0.1-15.9,0c-2.2,0-4.3,0-6.5-0.1
			C288.9,218,288.9,217,288.9,216.1z"/>
		<path class="st0" d="M395.1,213.5l-1.5,0c-5.4,0-10.8,0-16.2-0.1c-3.1,0-6.1,0-9.2,0l-1.5,0l0,1.5c0,2,0,4,0,6l0,1.5l7.9,0
			c2.1,0,4.2,0,6.3,0c4.2,0,8.5,0,12.7,0l1.5,0l0-1.5c0-2.3,0-4.2,0-6L395.1,213.5z M374.6,219.4l-4.8,0c0-1,0-2,0-3
			c2.6,0,5.1,0,7.7,0c4.9,0,9.8,0,14.7,0.1c0,0.9,0,1.9,0,3C386.2,219.5,380.4,219.5,374.6,219.4z"/>
		<path class="st0" d="M277.5,215.3l-1.4,0c-2.7-0.1-5-0.1-7,0l-1.5,0l0,1.5c0.1,3.6-1.2,8.4-5.1,10.5c-3.4,1.8-7.4,1.7-11.5,1.6
			c-1.6,0-3.3-0.1-4.9,0l-1.4,0.1l0,1.4c0,1.3,0,2.7,0,4l0,3.5l1.5,0c1.2,0,2.3,0,3.5,0c0.8,0,1.6,0,2.5,0c4.6,0,9.2-0.2,13.5-2
			c7.3-2.8,12.4-10.9,11.9-19.2L277.5,215.3z M264.5,233.1c-4.6,1.9-9.8,1.8-14.9,1.7c-0.7,0-1.4,0-2,0l0-0.5c0-0.8,0-1.7,0-2.5
			c1.1,0,2.2,0,3.3,0.1c4.4,0.1,8.8,0.3,13-1.9c4.7-2.4,6.5-7.4,6.7-11.7c1.2,0,2.5,0,4,0C274.3,224.8,270.3,230.9,264.5,233.1z"/>
		<path class="st0" d="M316.9,230.7l0-1.5l-1.5,0c-4.2,0-8.5,0-12.7,0c-5.1,0-10.2-0.1-15.3,0l-1.5,0l0,1.5c0,2,0,4,0,5.9l0,1.5
			l1.5,0c5.1,0.1,10.2,0.1,15.3,0.1c4.2,0,8.5,0,12.8,0.1l1.5,0l0-1.5C316.9,234.7,316.9,232.8,316.9,230.7z M307.1,235.1
			c-1.5,0-2.9,0-4.4,0c-4.6,0-9.2,0-13.8-0.1c0-1,0-2,0-3c4.6,0,9.2,0,13.8,0c3.7,0,7.5,0,11.2,0c0,1,0,2,0,3
			C311.6,235.1,309.3,235.1,307.1,235.1z"/>
		<path class="st0" d="M366.6,238.4l1.5,0c4,0,8,0,12,0.1c5.3,0,10.7,0,16,0.1l1.5,0l0-1.5c0-2,0-4,0-6l0-1.5l-31-0.1L366.6,238.4z
			 M369.7,232.4l25,0.1c0,1,0,2,0,3c-3,0-5.9,0-8.9,0c-1.9,0-3.8,0-5.7,0c-3.5,0-7,0-10.5,0L369.7,232.4z"/>
	</g>
</g>
</svg>
